<?xml version="1.0" encoding="UTF-8"?>
<svg width="35px" height="35px" viewBox="0 0 35 35" version="1.1" xmlns="http://www.w3.org/2000/svg" xmlns:xlink="http://www.w3.org/1999/xlink">
    <!-- Generator: Sketch 54 (76480) - https://sketchapp.com -->
    <title>_Groups/Auto-Scaling_light-bg</title>
    <desc>Created with Sketch.</desc>
    <g id="_Groups/Auto-Scaling_light-bg" stroke="none" stroke-width="1" fill="none" fill-rule="evenodd" opacity="0.800000012">
        <g id="Auto-Scaling_light-bg" transform="translate(5.000000, 4.000000)" fill="#3C5079" fill-rule="nonzero">
            <path d="M7.3,10.83 L9.97,13.5 L7.3,16.17 L6.59,15.46 L8.05,14 L-3.27737837e-13,14 L-3.27737837e-13,13 L8.05,13 L6.59,11.54 L7.3,10.83 Z M25,13 L25,14 L16.95,14 L18.41,15.46 L17.7,16.17 L15.03,13.5 L17.7,10.83 L18.41,11.54 L16.95,13 L25,13 Z M12,2.64 L10.54,4.1 L9.83,3.39 L12.5,0.72 L15.17,3.39 L14.46,4.1 L13,2.64 L13,10.69 L12,10.69 L12,2.64 Z M13,24.36 L14.46,22.9 L15.17,23.61 L12.5,26.28 L9.83,23.61 L10.54,22.9 L12,24.36 L12,16.31 L13,16.31 L13,24.36 Z" id="Combined-Shape"></path>
        </g>
    </g>
</svg>