<?xml version="1.0" encoding="UTF-8"?>
<svg width="49px" height="51px" viewBox="0 0 49 51" version="1.1" xmlns="http://www.w3.org/2000/svg" xmlns:xlink="http://www.w3.org/1999/xlink">
    <!-- Generator: Sketch 54 (76480) - https://sketchapp.com -->
    <title>Elastic-Load-Balancing-ELB</title>
    <desc>Created with Sketch.</desc>
    <g id="AWS-Icons" stroke="none" stroke-width="1" fill="none" fill-rule="evenodd" opacity="0.800000012">
        <g id="Compute/Elastic-Load-Balancing-ELB" transform="translate(-13.000000, -12.000000)" fill="#3C5079" fill-rule="nonzero">
            <g id="Elastic-Load-Balancing-ELB" transform="translate(13.000000, 12.000000)">
                <g id="Icon_Test">
                    <path d="M36.54,26.5 C37.0610125,29.6985415 39.9505804,31.9610966 43.1807219,31.699739 C46.4108634,31.4383814 48.8990879,28.7406977 48.8990879,25.5 C48.8990879,22.2593023 46.4108634,19.5616186 43.1807219,19.300261 C39.9505804,19.0389034 37.0610125,21.3014585 36.54,24.5 L29.08,24.5 C28.9642989,22.6587986 28.4886576,20.8581563 27.68,19.2 L36.68,11.59 C38.9544035,13.3899803 42.1709861,13.3790368 44.4330893,11.5636223 C46.6951924,9.74820789 47.4022669,6.61028352 46.1373862,4.00012703 C44.8725054,1.38997054 41.9714733,0.000533181754 39.144884,0.651096993 C36.3182947,1.3016608 34.3165587,3.81951239 34.32,6.72 C34.3083004,7.92749153 34.6564259,9.11111837 35.32,10.12 L26.62,17.45 C23.0734737,12.1367478 16.4675541,9.77043808 10.3540295,11.6233588 C4.24050495,13.4762794 0.0598383095,19.1118471 0.0598383095,25.5 C0.0598383095,31.8881529 4.24050495,37.5237206 10.3540295,39.3766412 C16.4675541,41.2295619 23.0734737,38.8632522 26.62,33.55 L35.32,40.88 C34.6564259,41.8888816 34.3083004,43.0725085 34.32,44.28 C34.3188179,47.1749224 36.3180689,49.6866377 39.1394855,50.3348551 C41.960902,50.9830726 44.855938,49.5958146 46.118391,46.9906679 C47.380844,44.3855212 46.6757745,41.2536535 44.4187182,39.4408452 C42.1616619,37.6280369 38.9514354,37.6152414 36.68,39.41 L27.68,31.8 C28.4886576,30.1418437 28.9642989,28.3412014 29.08,26.5 L36.54,26.5 Z M42.66,21.28 C44.3677349,21.2759532 45.9095664,22.3015535 46.5658942,23.8781348 C47.222222,25.4547161 46.8636492,27.2714511 45.6575282,28.4804369 C44.4514073,29.6894228 42.6355281,30.0523047 41.0573941,29.3997192 C39.4792601,28.7471337 38.4500048,27.2077397 38.45,25.5 C38.4499935,23.173258 40.3332646,21.2855136 42.66,21.28 Z M40.58,2.5 C42.9106416,2.5 44.8,4.38935836 44.8,6.72 C44.8,9.05064164 42.9106416,10.94 40.58,10.94 C38.2493584,10.94 36.36,9.05064164 36.36,6.72 C36.36,4.38935836 38.2493584,2.5 40.58,2.5 Z M40.58,40.07 C42.2877397,40.0700048 43.8271337,41.0992601 44.4797192,42.6773941 C45.1323047,44.2555281 44.7694228,46.0714073 43.5604369,47.2775282 C42.3514511,48.4836492 40.5347161,48.842222 38.9581348,48.1858942 C37.3815535,47.5295664 36.3559532,45.9877349 36.36,44.28 C36.3655136,41.9532646 38.253258,40.0699935 40.58,40.07 L40.58,40.07 Z M14.62,38 C7.71644063,38 2.12,32.4035594 2.12,25.5 C2.12,18.5964406 7.71644063,13 14.62,13 C21.5235594,13 27.12,18.5964406 27.12,25.5 C27.108988,32.3989929 21.5189929,37.988988 14.62,38 L14.62,38 Z" id="Shape"></path>
                </g>
            </g>
        </g>
    </g>
</svg>