<?xml version="1.0" encoding="UTF-8"?>
<svg width="51px" height="51px" viewBox="0 0 51 51" version="1.1" xmlns="http://www.w3.org/2000/svg" xmlns:xlink="http://www.w3.org/1999/xlink">
    <!-- Generator: Sketch 54 (76480) - https://sketchapp.com -->
    <title>Amazon-EC2</title>
    <desc>Created with Sketch.</desc>
    <g id="AWS-Icons" stroke="none" stroke-width="1" fill="none" fill-rule="evenodd" opacity="0.800000012">
        <g id="Compute/Amazon-EC2" transform="translate(-12.000000, -12.000000)" fill="#3C5079" fill-rule="nonzero">
            <g id="Amazon-EC2" transform="translate(12.000000, 12.000000)">
                <g id="Icon_Test">
                    <path d="M48.49,28.5 L43.49,28.5 L43.49,26.5 L48.49,26.5 L48.49,2.5 L24.49,2.5 L24.49,7.5 L22.49,7.5 L22.49,2.5 C22.49,1.3954305 23.3854305,0.5 24.49,0.5 L48.49,0.5 C49.5945695,0.5 50.49,1.3954305 50.49,2.5 L50.49,26.5 C50.49,27.6045695 49.5945695,28.5 48.49,28.5 Z" id="Shape"></path>
                    <path d="M26.49,50.5 L2.49,50.5 C1.3854305,50.5 0.49,49.6045695 0.49,48.5 L0.49,24.5 C0.49,23.3954305 1.3854305,22.5 2.49,22.5 L7.49,22.5 L7.49,24.5 L2.49,24.5 L2.49,48.5 L26.49,48.5 L26.49,43.5 L28.49,43.5 L28.49,48.5 C28.49,49.6045695 27.5945695,50.5 26.49,50.5 Z" id="Shape"></path>
                    <path d="M41.5,16.5 L41.5,14.5 L38.5,14.5 C38.4149709,13.4326315 37.5673685,12.5850291 36.5,12.5 L36.5,9.5 L34.5,9.5 L34.5,12.5 L31.5,12.5 L31.5,9.5 L29.5,9.5 L29.5,12.5 L26.5,12.5 L26.5,9.5 L24.5,9.5 L24.5,12.5 L21.5,12.5 L21.5,9.5 L19.5,9.5 L19.5,12.5 L16.5,12.5 L16.5,9.5 L14.5,9.5 L14.5,12.5 C13.4326315,12.5850291 12.5850291,13.4326315 12.5,14.5 L9.5,14.5 L9.5,16.5 L12.5,16.5 L12.5,19.5 L9.5,19.5 L9.5,21.5 L12.5,21.5 L12.5,24.5 L9.5,24.5 L9.5,26.5 L12.5,26.5 L12.5,29.5 L9.5,29.5 L9.5,31.5 L12.5,31.5 L12.5,34.5 L9.5,34.5 L9.5,36.5 L12.5,36.5 C12.5850291,37.5673685 13.4326315,38.4149709 14.5,38.5 L14.5,41.5 L16.5,41.5 L16.5,38.5 L19.5,38.5 L19.5,41.5 L21.5,41.5 L21.5,38.5 L24.5,38.5 L24.5,41.5 L26.5,41.5 L26.5,38.5 L29.5,38.5 L29.5,41.5 L31.5,41.5 L31.5,38.5 L34.5,38.5 L34.5,41.5 L36.5,41.5 L36.5,38.5 C37.5673685,38.4149709 38.4149709,37.5673685 38.5,36.5 L41.5,36.5 L41.5,34.5 L38.5,34.5 L38.5,31.5 L41.5,31.5 L41.5,29.5 L38.5,29.5 L38.5,26.5 L41.5,26.5 L41.5,24.5 L38.5,24.5 L38.5,21.5 L41.5,21.5 L41.5,19.5 L38.5,19.5 L38.5,16.5 L41.5,16.5 Z M36.5,36.32 C36.5,36.4194113 36.4194113,36.5 36.32,36.5 L14.68,36.5 C14.5805887,36.5 14.5,36.4194113 14.5,36.32 L14.5,14.68 C14.5,14.5805887 14.5805887,14.5 14.68,14.5 L36.32,14.5 C36.4194113,14.5 36.5,14.5805887 36.5,14.68 L36.5,36.32 Z" id="Shape"></path>
                </g>
            </g>
        </g>
    </g>
</svg>