<?xml version="1.0" encoding="UTF-8"?>
<svg width="48px" height="48px" viewBox="0 0 48 48" version="1.1" xmlns="http://www.w3.org/2000/svg" xmlns:xlink="http://www.w3.org/1999/xlink">
    <!-- Generator: Sketch 54 (76480) - https://sketchapp.com -->
    <title>Amazon-VPC_Elastic-Network-Interface_light-bg</title>
    <desc>Created with Sketch.</desc>
    <g id="AWS-Icons" stroke="none" stroke-width="1" fill="none" fill-rule="evenodd" opacity="0.800000012">
        <g id="Networking-&amp;-Content-Delivery/Amazon-VPC_Elastic-Network-Interface_light-bg" fill="#3C5079" fill-rule="nonzero">
            <g id="Amazon-VPC_Elastic-Network-Interface_light-bg">
                <path d="M24,47.5 C11.0213084,47.5 0.5,36.9786916 0.5,24 C0.5,11.0213084 11.0213084,0.5 24,0.5 C36.9786916,0.5 47.5,11.0213084 47.5,24 C47.4889723,36.974121 36.974121,47.4889723 24,47.5 Z M24,2.5 C12.1258779,2.5 2.5,12.1258779 2.5,24 C2.5,35.8741221 12.1258779,45.5 24,45.5 C35.8741221,45.5 45.5,35.8741221 45.5,24 C45.4889739,12.130448 35.869552,2.51102607 24,2.5 Z" id="Shape"></path>
                <path d="M12.75,36.25 L9.37,36.25 L9.37,34.25 L11.75,34.25 L11.75,15.62 L9.37,15.62 L9.37,13.62 L12.75,13.62 C13.3022847,13.62 13.75,14.0677153 13.75,14.62 L13.75,35.25 C13.75,35.8022847 13.3022847,36.25 12.75,36.25 Z" id="Shape"></path>
                <path d="M36.19,34.38 L31.5,34.38 C30.9477153,34.38 30.5,33.9322847 30.5,33.38 L30.5,31.56 L28.75,31.56 L28.75,33.38 C28.75,33.9322847 28.3022847,34.38 27.75,34.38 L18.37,34.38 C17.8177153,34.38 17.37,33.9322847 17.37,33.38 L17.37,31.56 L16.5,31.56 C15.9477153,31.56 15.5,31.1122847 15.5,30.56 L15.5,16.5 C15.5,15.9477153 15.9477153,15.5 16.5,15.5 L39.94,15.5 C40.4922847,15.5 40.94,15.9477153 40.94,16.5 L40.94,30.56 C40.94,30.8252165 40.8346432,31.0795704 40.6471068,31.2671068 C40.4595704,31.4546432 40.2052165,31.56 39.94,31.56 L37.19,31.56 L37.19,33.38 C37.19,33.9322847 36.7422847,34.38 36.19,34.38 Z M32.5,32.38 L35.19,32.38 L35.19,30.56 C35.19,30.0077153 35.6377153,29.56 36.19,29.56 L38.94,29.56 L38.94,17.5 L17.5,17.5 L17.5,29.56 L18.37,29.56 C18.9222847,29.56 19.37,30.0077153 19.37,30.56 L19.37,32.38 L26.75,32.38 L26.75,30.56 C26.75,30.0077153 27.1977153,29.56 27.75,29.56 L31.5,29.56 C32.0522847,29.56 32.5,30.0077153 32.5,30.56 L32.5,32.38 Z" id="Shape"></path>
                <path d="M34.31,27.81 L21.19,27.81 C20.6377153,27.81 20.19,27.3622847 20.19,26.81 L20.19,20.25 C20.19,19.6977153 20.6377153,19.25 21.19,19.25 L34.31,19.25 C34.8622847,19.25 35.31,19.6977153 35.31,20.25 L35.31,26.81 C35.31,27.3622847 34.8622847,27.81 34.31,27.81 Z M22.19,25.81 L33.31,25.81 L33.31,21.25 L22.19,21.25 L22.19,25.81 Z" id="Shape"></path>
                <polygon id="Rectangle-path" points="26.75 20.25 28.75 20.25 28.75 26.81 26.75 26.81"></polygon>
            </g>
        </g>
    </g>
</svg>