<?xml version="1.0" encoding="UTF-8"?>
<svg width="49px" height="51px" viewBox="0 0 49 51" version="1.1" xmlns="http://www.w3.org/2000/svg" xmlns:xlink="http://www.w3.org/1999/xlink">
    <!-- Generator: Sketch 54 (76480) - https://sketchapp.com -->
    <title>AWS-Lambda</title>
    <desc>Created with Sketch.</desc>
    <g id="AWS-Icons" stroke="none" stroke-width="1" fill="none" fill-rule="evenodd" opacity="0.800000012">
        <g id="Compute/AWS-Lambda" transform="translate(-13.000000, -12.000000)" fill="#3C5079" fill-rule="nonzero">
            <g id="AWS-Lambda" transform="translate(13.000000, 12.000000)">
                <g id="Icon_Test">
                    <path d="M47.5,50.5 L35.18,50.5 C34.7953406,50.4989111 34.4454027,50.2772838 34.28,49.93 L16.86,13.5 L9.49,13.5 C8.93771525,13.5 8.49,13.0522847 8.49,12.5 L8.49,1.5 C8.49,0.94771525 8.93771525,0.5 9.49,0.5 L24.89,0.5 C25.2746594,0.501088897 25.6245973,0.722716217 25.79,1.07 L43.13,37.5 L47.5,37.5 C48.0522847,37.5 48.5,37.9477153 48.5,38.5 L48.5,49.5 C48.5,50.0522847 48.0522847,50.5 47.5,50.5 Z M35.81,48.5 L46.5,48.5 L46.5,39.5 L42.5,39.5 C42.1153406,39.4989111 41.7654027,39.2772838 41.6,38.93 L24.26,2.5 L10.5,2.5 L10.5,11.5 L17.5,11.5 C17.8846594,11.5010889 18.2345973,11.7227162 18.4,12.07 L35.81,48.5 Z M14.48,50.5 L1.48,50.5 C1.13449853,50.5006914 0.813115454,50.3229855 0.63,50.03 C0.435642855,49.7296126 0.416576051,49.3482765 0.58,49.03 L14.18,20.62 C14.3454027,20.2727162 14.6953406,20.0510889 15.08,20.05 C15.4623951,20.0492347 15.8117466,20.266609 15.98,20.61 L22.49,34 C22.6227594,34.274806 22.6227594,34.595194 22.49,34.87 L15.39,49.87 C15.2411251,50.2440233 14.8824897,50.4923093 14.48,50.5 Z M3.08,48.5 L13.85,48.5 L20.48,34.5 L15.09,23.35 L3.08,48.5 Z" id="Combined-Shape"></path>
                </g>
            </g>
        </g>
    </g>
</svg>