<?xml version="1.0" encoding="UTF-8"?>
<svg width="48px" height="48px" viewBox="0 0 48 48" version="1.1" xmlns="http://www.w3.org/2000/svg" xmlns:xlink="http://www.w3.org/1999/xlink">
    <!-- Generator: Sketch 54 (76480) - https://sketchapp.com -->
    <title>Networking &amp; Content Delivery/Amazon-VPC_NAT-Gateway_light-bg</title>
    <desc>Created with Sketch.</desc>
    <g id="Networking-&amp;-Content-Delivery/Amazon-VPC_NAT-Gateway_light-bg" stroke="none" stroke-width="1" fill="none" fill-rule="evenodd" opacity="0.800000012">
        <g id="Amazon-VPC_NAT-Gateway_light-bg" fill="#3C5079" fill-rule="nonzero">
            <path d="M36.12,25.94 L27.81,25.94 L27.81,36.19 C27.81,36.4552165 27.7046432,36.7095704 27.5171068,36.8971068 C27.3295704,37.0846432 27.0752165,37.19 26.81,37.19 L18.57,37.19 L18.57,35.19 L25.81,35.19 L25.81,25.94 L18.37,25.94 L18.37,23.94 L25.81,23.94 L25.81,14.69 L18.57,14.69 L18.57,12.69 L26.81,12.69 C27.3622847,12.69 27.81,13.1377153 27.81,13.69 L27.81,23.94 L36.12,23.94 L36.12,20.25 C36.1176374,19.8437349 36.3613038,19.47642 36.7365185,19.320629 C37.1117332,19.1648381 37.5439095,19.2515401 37.83,19.54 L42.52,24.23 C42.9077236,24.6200375 42.9077236,25.2499625 42.52,25.64 L37.83,30.33 C37.6412812,30.5171865 37.385803,30.6215368 37.12,30.62 C36.9901144,30.6201451 36.8613082,30.5964177 36.74,30.55 C36.3632059,30.3952126 36.1179599,30.0273435 36.12,29.62 L36.12,25.94 Z M24,47.5 C11.0213084,47.5 0.5,36.9786916 0.5,24 C0.5,11.0213084 11.0213084,0.5 24,0.5 C36.9786916,0.5 47.5,11.0213084 47.5,24 C47.4889723,36.974121 36.974121,47.4889723 24,47.5 Z M24,2.5 C12.1258779,2.5 2.5,12.1258779 2.5,24 C2.5,35.8741221 12.1258779,45.5 24,45.5 C35.8741221,45.5 45.5,35.8741221 45.5,24 C45.4889739,12.130448 35.869552,2.51102607 24,2.5 Z M11.81,18.44 C11.6610067,18.439117 11.5140937,18.4049512 11.38,18.34 C11.0327162,18.1745973 10.8110889,17.8246594 10.81,17.44 L10.81,9.94 C10.8110889,9.55534056 11.0327162,9.20540268 11.38,9.04 C11.7269474,8.87246084 12.1392864,8.91914072 12.44,9.16 L17.12,12.91 C17.3587374,13.0986474 17.4985972,13.385728 17.5,13.69 C17.4985972,13.994272 17.3587374,14.2813526 17.12,14.47 L12.44,18.22 C12.2613841,18.3633043 12.0389953,18.440964 11.81,18.44 Z M12.81,12.02 L12.81,15.36 L14.9,13.69 L12.81,12.02 Z M11.81,29.69 C11.6610067,29.689117 11.5140937,29.6549512 11.38,29.59 C11.0327162,29.4245973 10.8110889,29.0746594 10.81,28.69 L10.81,21.19 C10.8110889,20.8053406 11.0327162,20.4554027 11.38,20.29 C11.7269474,20.1224608 12.1392864,20.1691407 12.44,20.41 L17.12,24.16 C17.3587374,24.3486474 17.4985972,24.635728 17.5,24.94 C17.4985972,25.244272 17.3587374,25.5313526 17.12,25.72 L12.44,29.47 C12.2613841,29.6133043 12.0389953,29.690964 11.81,29.69 Z M12.81,23.27 L12.81,26.61 L14.9,24.94 L12.81,23.27 Z M38.12,22.62 L38.12,27.17 L40.4,24.9 L38.12,22.62 Z M11.81,40 C11.6610067,39.999117 11.5140937,39.9649512 11.38,39.9 C11.0327162,39.7345973 10.8110889,39.3846594 10.81,39 L10.81,31.5 C10.808683,31.1137498 11.0299275,30.7612762 11.3783429,30.5945499 C11.7267582,30.4278235 12.1400401,30.4766587 12.44,30.72 L17.12,34.47 C17.3565713,34.6597968 17.4942205,34.9467035 17.4942205,35.25 C17.4942205,35.5532965 17.3565713,35.8402032 17.12,36.03 L12.44,39.78 C12.2613841,39.9233043 12.0389953,40.000964 11.81,40 Z M12.81,33.58 L12.81,36.92 L14.9,35.25 L12.81,33.58 Z" id="Combined-Shape"></path>
        </g>
    </g>
</svg>