<?xml version="1.0" encoding="UTF-8"?>
<svg width="34px" height="48px" viewBox="0 0 34 48" version="1.1" xmlns="http://www.w3.org/2000/svg" xmlns:xlink="http://www.w3.org/1999/xlink">
    <!-- Generator: Sketch 54 (76480) - https://sketchapp.com -->
    <title>Amazon-Elastic-Block-Store-EBS_Snapshot_light-bg</title>
    <desc>Created with Sketch.</desc>
    <g id="AWS-Icons" stroke="none" stroke-width="1" fill="none" fill-rule="evenodd" opacity="0.800000012">
        <g id="Storage/Amazon-Elastic-Block-Store-EBS_Snapshot_light-bg" fill="#3C5079" fill-rule="nonzero">
            <g id="Amazon-Elastic-Block-Store-EBS_Snapshot_light-bg">
                <path d="M16.9867493,28.3487661 C16.7003344,28.5270296 16.3621922,28.63 16,28.63 C14.9672275,28.63 14.13,27.7927725 14.13,26.76 C14.13,25.7272275 14.9672275,24.89 16,24.89 C16.9582264,24.89 17.7481181,25.6107264 17.8571554,26.5396595 C21.5155367,28.2760306 25.4037527,29.8896369 28.2228832,30.8168363 L29.56,20.94 C26.28,22.64 20.3,23.31 16.01,23.31 C11.72,23.31 5.75,22.64 2.46,21 L5.46,43.15 C5.46,43.15 5.46,43.24 5.46,43.29 C5.71,44 9.92,45.5 16,45.5 C18.3530764,45.5147796 20.7006042,45.269966 23,44.77 C23.7003045,44.6159344 24.3887201,44.4120832 25.06,44.16 C26.4,43.63 26.56,43.21 26.56,43.21 C26.5555017,43.1734713 26.5555017,43.1365287 26.56,43.1 L27.9510048,32.8251109 C25.4433933,32.0965969 21.9138303,30.7151562 16.9867493,28.3487661 Z M15.9580673,26.8662259 L16.0672495,26.6428987 C16.0465894,26.6327659 16.023395,26.6281949 16,26.63 C15.928203,26.63 15.87,26.688203 15.87,26.76 C15.87,26.8172883 15.9093834,26.8526969 15.9580673,26.8662259 Z M30.624621,28.4304704 C32.750462,29.6582697 33.7536658,30.6155216 33.93,31.59 C34.0183271,32.0664869 33.8900594,32.5575692 33.58,32.93 C33.0827094,33.3860822 32.4089415,33.5984656 31.74,33.51 C31.256062,33.51 30.6658725,33.4506763 29.9501494,33.3149822 L28.57,43.31 C28.57,44.4 27.57,45.31 25.81,46.02 C25.043578,46.306745 24.258405,46.5406263 23.46,46.72 C21.0094261,47.2525635 18.5077354,47.5141344 16,47.5 C11,47.5 3.57,46.38 3.45,43.31 L0.11,18.47 C0.00230447378,17.9177153 0.36271525,17.3826955 0.915,17.275 C1.46728475,17.1673045 2.00230447,17.5277153 2.11,18.08 C2.41,19.4 8,21.31 16,21.31 C24,21.31 29.6,19.4 30,18.08 C30.1076955,17.5277153 30.6427153,17.1673045 31.195,17.275 C31.7472847,17.3826955 32.1076955,17.9177153 32,18.47 L30.624621,28.4304704 Z M30.3275949,30.5815286 L30.214733,31.3988722 C30.826004,31.5470206 31.3242219,31.6283138 31.68,31.63 C31.2556185,31.2466838 30.8034857,30.8962851 30.3275949,30.5815286 Z M28.25,7.19 L3.88,7.19 C3.48111355,7.19138902 3.11955313,6.95558874 2.96,6.59 C2.80008275,6.22621307 2.87074197,5.80225772 3.14,5.51 L7.47,0.82 C7.66083448,0.614219238 7.92935803,0.498100949 8.21,0.5 L23.92,0.5 C24.1971651,0.50089162 24.4615282,0.616776838 24.65,0.82 L29,5.51 C29.2726701,5.80008318 29.3472964,6.22427457 29.19,6.59 C29.0276199,6.96236212 28.6561167,7.19949181 28.25,7.19 Z M6.16,5.19 L26,5.19 L23.48,2.5 L8.65,2.5 L6.16,5.19 Z M29.25,12.75 L27.25,12.75 L27.25,10.94 L4.88,10.94 L4.88,12.75 L2.88,12.75 L2.88,9.94 C2.88,9.38771525 3.32771525,8.94 3.88,8.94 L28.25,8.94 C28.8022847,8.94 29.25,9.38771525 29.25,9.94 L29.25,12.75 Z" id="Combined-Shape"></path>
                <path d="M16,23.31 C10.12,23.31 1,22.05 0.13,18.59 C0.125457096,18.550129 0.125457096,18.509871 0.13,18.47 L0.13,18.16 C0.13,18.11 0.13,18.07 0.13,18.03 C0.13,14.56 8.38,12.22 16.13,12.22 C23.88,12.22 32,14.56 32,18 L32,18.13 L32,18.44 L32,18.56 C31,22.05 21.9,23.31 16,23.31 Z M2.08,18.13 C2.54,19.44 8.08,21.31 16.01,21.31 C23.94,21.31 29.49,19.44 29.94,18.13 L30,18 C29.86,16.85 24.48,14.24 16.05,14.24 C7.62,14.24 2.2,16.83 2.07,18 L2.08,18.13 Z" id="Shape"></path>
            </g>
        </g>
    </g>
</svg>