<?xml version="1.0" encoding="UTF-8"?>
<svg width="35px" height="35px" viewBox="0 0 35 35" version="1.1" xmlns="http://www.w3.org/2000/svg" xmlns:xlink="http://www.w3.org/1999/xlink">
    <!-- Generator: Sketch 54 (76480) - https://sketchapp.com -->
    <title>_Groups/Icons/VPC-subnet-public_light-bg</title>
    <desc>Created with Sketch.</desc>
    <g id="_Groups/Icons/VPC-subnet-public_light-bg" stroke="none" stroke-width="1" fill="none" fill-rule="evenodd" opacity="0.800000012">
        <g id="VPC-subnet-public_light-bg" transform="translate(9.000000, 6.000000)" fill="#3C5079" fill-rule="nonzero">
            <path d="M8.51,11.83 C9.7328736,11.8223226 10.7625497,12.7426461 10.8916436,13.9587109 C11.0207375,15.1747756 10.2072307,16.2907662 9.01,16.54 L9.01,19.83 L8.01,19.83 L8.01,16.54 C6.81276933,16.2907662 5.99926246,15.1747756 6.12835638,13.9587109 C6.25745031,12.7426461 7.2871264,11.8223226 8.51,11.83 Z M8.51,15.59 C9.27215295,15.59 9.89,14.972153 9.89,14.21 C9.89,13.6518421 9.55377379,13.148644 9.03810314,12.9350462 C8.52243248,12.7214485 7.92886988,12.8395154 7.53419264,13.2341926 C7.13951541,13.6288699 7.02144846,14.2224325 7.23504625,14.7381031 C7.44864403,15.2537738 7.9518421,15.59 8.51,15.59 Z M13.72,8.3 L16.86,8.3 L16.86,22.59 L0.14,22.59 L0.14,8.3 L3.28,8.3 L3.28,5.63 C3.28,2.74707361 5.61707361,0.41 8.5,0.41 C11.3829264,0.41 13.72,2.74707361 13.72,5.63 L13.72,8.3 Z M4.28,5.63 L4.28,8.3 L12.72,8.3 L12.72,5.63 C12.72,4.12233919 11.9156726,2.72920314 10.61,1.97537272 C9.30432747,1.22154231 7.69567253,1.22154231 6.38999997,1.97537272 C5.08432742,2.72920314 4.27999997,4.12233919 4.28,5.63 Z M15.86,21.63 L15.86,9.3 L1.14,9.3 L1.14,21.63 L15.86,21.63 Z" id="Combined-Shape"></path>
        </g>
    </g>
</svg>