<?xml version="1.0" encoding="UTF-8"?>
<svg width="35px" height="35px" viewBox="0 0 35 35" version="1.1" xmlns="http://www.w3.org/2000/svg" xmlns:xlink="http://www.w3.org/1999/xlink">
    <!-- Generator: Sketch 54 (76480) - https://sketchapp.com -->
    <title>_Groups/Icons/Virtual-private-cloud-VPC_light-bg</title>
    <desc>Created with Sketch.</desc>
    <g id="_Groups/Icons/Virtual-private-cloud-VPC_light-bg" stroke="none" stroke-width="1" fill="none" fill-rule="evenodd" opacity="0.800000012">
        <g id="Virtual-private-cloud-VPC_light-bg" transform="translate(4.000000, 8.000000)" fill="#3C5079" fill-rule="nonzero">
            <path d="M15.85,9.69 C16.1261424,9.69 16.35,9.91385763 16.35,10.19 L16.35,14 C16.35,14.2761424 16.1261424,14.5 15.85,14.5 L10.08,14.5 C9.80385763,14.5 9.58,14.2761424 9.58,14 L9.58,10.17 C9.58,9.89385763 9.80385763,9.67 10.08,9.67 L10.82,9.67 L10.82,9 C10.897057,7.8720939 11.8344647,6.99654351 12.965,6.99654351 C14.0955353,6.99654351 15.032943,7.8720939 15.11,9 L15.11,9.69 L15.85,9.69 Z M11.85,9.02 L11.82,9.69 L14.14,9.69 L14.14,9.02 C14.0847042,8.42895441 13.5886266,7.97712143 12.995,7.97712143 C12.4013734,7.97712143 11.9052958,8.42895441 11.85,9.02 Z M15.38,13.45 L15.35,10.69 L10.58,10.69 L10.58,13.45 L15.38,13.45 Z M22.42,8.09 C24.805846,8.49465144 26.5390108,10.5803963 26.5,13 C26.5,17.66 21.86,18.06 21.86,18.06 L5.61,18.06 C2.94717622,18.0897181 0.715184417,16.0542813 0.5,13.4 C0.5,13.27 0.5,13.13 0.5,13 C0.393948503,10.8000945 1.82030945,8.81811623 3.94,8.22 C3.94,8.08 3.94,7.94 3.94,7.79 C3.99286003,5.09362285 5.56462999,2.65854082 8,1.5 C10.6061811,0.349973872 13.6531204,0.948978978 15.63,3 C16.3053195,3.67873414 16.8509451,4.47514419 17.24,5.35 C18.0061089,4.70931769 19.0408096,4.4918806 20,4.77 C21.4085541,5.27917564 22.3663676,6.59320069 22.42,8.09 Z M21.83,17.09 L21.9,17.11 C23.9814557,16.902888 25.5670112,15.1517345 25.5670112,13.06 C25.5670112,10.9682655 23.9814557,9.21711196 21.9,9.01 C21.6359622,8.96412657 21.4577599,8.71464331 21.5,8.45 C21.539059,7.269559 20.8357933,6.19068543 19.74,5.75 C18.8889916,5.51619618 17.9830834,5.84488857 17.48,6.57 C17.369749,6.71685492 17.1878694,6.79145687 17.0062513,6.76431852 C16.8246331,6.73718018 16.672506,6.61266917 16.61,6.44 C16.2729337,5.4312486 15.7123097,4.51168851 14.97,3.75 C13.872047,2.6133098 12.3699655,1.95569996 10.79,1.92 C9.96299001,1.92856875 9.14639123,2.10549849 8.39,2.44 C6.33155126,3.44992326 5.00288979,5.51801373 4.94,7.81 C4.92480286,8.05309605 4.92480286,8.29690395 4.94,8.54 C4.96886905,8.78941704 4.8119059,9.02274065 4.57,9.09 C2.71002268,9.45621943 1.40444837,11.137253 1.51,13.03 C1.51,13.14 1.51,13.25 1.51,13.36 C1.68359118,15.4918497 3.48135519,17.1233971 5.62,17.09 L21.83,17.09 Z" id="Combined-Shape"></path>
        </g>
    </g>
</svg>