<?xml version="1.0" encoding="UTF-8"?>
<svg width="51px" height="51px" viewBox="0 0 51 51" version="1.1" xmlns="http://www.w3.org/2000/svg" xmlns:xlink="http://www.w3.org/1999/xlink">
    <!-- Generator: Sketch 54 (76480) - https://sketchapp.com -->
    <title>Amazon-Elastic-File-System_EFS</title>
    <desc>Created with Sketch.</desc>
    <g id="AWS-Icons" stroke="none" stroke-width="1" fill="none" fill-rule="evenodd" opacity="0.800000012">
        <g id="Storage/Amazon-Elastic-File-System_EFS" transform="translate(-12.000000, -12.000000)" fill="#3C5079" fill-rule="nonzero">
            <g id="Amazon-Elastic-File-System_EFS" transform="translate(12.000000, 12.000000)">
                <g id="Icon_Test">
                    <path d="M2.5,3.91 L2.5,9.5 L0.5,9.5 L0.5,1.5 C0.5,0.94771525 0.94771525,0.5 1.5,0.5 L9.5,0.5 L9.5,2.5 L3.91,2.5 L11.21,9.79 L9.79,11.21 L2.5,3.91 Z M49.5,0.5 C50.0522847,0.5 50.5,0.94771525 50.5,1.5 L50.5,9.5 L48.5,9.5 L48.5,3.91 L41.21,11.21 L39.79,9.79 L47.09,2.5 L41.5,2.5 L41.5,0.5 L49.5,0.5 Z M9.79,39.79 L11.21,41.21 L3.91,48.5 L9.5,48.5 L9.5,50.5 L1.5,50.5 C0.94771525,50.5 0.5,50.0522847 0.5,49.5 L0.5,41.5 L2.5,41.5 L2.5,47.09 L9.79,39.79 Z M48.5,47.09 L48.5,41.5 L50.5,41.5 L50.5,49.5 C50.5,50.0522847 50.0522847,50.5 49.5,50.5 L41.5,50.5 L41.5,48.5 L47.09,48.5 L39.79,41.21 L41.21,39.79 L48.5,47.09 Z M17.6,11.24 C14.2873311,12.8380475 12.1453735,16.1532576 12.05,19.83 C12.0547449,20.22119 12.0814536,20.611805 12.13,21 C12.1448006,21.4677664 11.8331999,21.883234 11.38,22 C8.41221913,22.5438773 6.30994505,25.2070433 6.47,28.22 C6.47,28.38 6.47,28.53 6.47,28.68 C6.64486147,31.2427648 8.35813822,33.4427229 10.8,34.24 L10.14,36.13 C6.93402537,35.0651076 4.69489804,32.1613629 4.48,28.79 C4.48,28.6 4.48,28.41 4.48,28.22 C4.34691857,24.6285685 6.62512406,21.3891812 10.05,20.3 C10.05,20.11 10.05,19.93 10.05,19.75 C10.1586471,15.2792597 12.7832134,11.2533763 16.83,9.35 C21.2017582,7.44123634 26.2990395,8.44554823 29.62,11.87 C30.6671781,12.9205691 31.5233126,14.145552 32.15,15.49 C33.0482603,14.8307043 34.1358007,14.4798848 35.25,14.49 C37.69,14.49 40.26,16.24 40.77,20.12 C45.12,21.31 47.5,24.21 47.5,28.31 C47.5,32.41 45.42,35.18 41.65,36.09 L41.18,34.15 C44.09,33.44 45.5,31.53 45.5,28.31 C45.5,24.91 43.53,22.73 39.64,21.91 C39.1956107,21.8201448 38.8672773,21.4425613 38.84,20.99 C38.65,17.67 36.79,16.49 35.25,16.49 C34.1929632,16.5048458 33.2057677,17.0207111 32.59,17.88 C32.3694981,18.1737098 32.0057388,18.3229137 31.6425025,18.268637 C31.2792662,18.2143604 30.975012,17.9653383 30.85,17.62 C30.3055712,16.0088376 29.4029474,14.542074 28.21,13.33 C25.4667229,10.4678381 21.2238168,9.63205359 17.6,11.24 Z M41.45,30.82 L37.44,42.81 C37.3070633,43.2177867 36.9288833,43.4953869 36.5,43.5 L13.5,43.5 C12.9477153,43.5 12.5,43.0522847 12.5,42.5 L12.5,30 C12.5013842,28.9539228 12.9229499,27.9522538 13.67,27.22 C14.1738223,26.7297414 14.8576873,26.4692214 15.56,26.5 L16.77,26.5 C17.07,25.62 17.66,24.5 18.55,24.5 L22.55,24.5 L22.74,24.5 C23.51,24.67 24.01,25.69 24.27,26.5 L34.55,26.5 C35.2346332,26.4801911 35.8969762,26.7444044 36.38,27.23 C36.9991622,27.838335 37.3939556,28.6384967 37.5,29.5 L40.5,29.5 C40.8218574,29.5014883 41.1233242,29.6578044 41.31,29.92 C41.4985117,30.1801007 41.5505958,30.514927 41.45,30.82 Z M39.11,31.5 L37.5,31.5 L37.5,36.34 L39.11,31.5 Z M35.5,41.5 L35.5,30 C35.4977422,29.5096176 35.3039641,29.0395264 34.96,28.69 C34.8622736,28.5749362 34.7208434,28.5060343 34.57,28.5 L23.49,28.5 C22.9377153,28.5 22.49,28.0522847 22.49,27.5 C22.3901365,27.1556847 22.2596143,26.8210125 22.1,26.5 L18.89,26.5 C18.7032155,26.8341112 18.5587705,27.190185 18.46,27.56 C18.4282202,28.0887239 17.9896773,28.5009542 17.46,28.5 L15.46,28.5 C15.2859047,28.4909847 15.1169877,28.5607547 15,28.69 C14.6688203,29.0447192 14.4893899,29.5148267 14.5,30 L14.5,41.5 L35.5,41.5 Z" id="Combined-Shape"></path>
                </g>
            </g>
        </g>
    </g>
</svg>