<?xml version="1.0" encoding="UTF-8"?>
<svg width="49px" height="51px" viewBox="0 0 49 51" version="1.1" xmlns="http://www.w3.org/2000/svg" xmlns:xlink="http://www.w3.org/1999/xlink">
    <!-- Generator: Sketch 54 (76480) - https://sketchapp.com -->
    <title>Amazon-Simple-Storage-Service-S3</title>
    <desc>Created with Sketch.</desc>
    <g id="AWS-Icons" stroke="none" stroke-width="1" fill="none" fill-rule="evenodd" opacity="0.800000012">
        <g id="Storage/Amazon-Simple-Storage-Service-S3" transform="translate(-13.000000, -12.000000)" fill="#3C5079" fill-rule="nonzero">
            <g id="Amazon-Simple-Storage-Service-S3" transform="translate(13.000000, 12.000000)">
                <g id="Icon_Test">
                    <path d="M48.43,28.06 C48.14,26.49 46.36,25.38 45.14,24.59 C44.75,24.34 43.68,23.94 43.59,23.59 C43.583851,23.3395895 43.6176068,23.0897967 43.69,22.85 L44.69,15.66 C44.98,13.55 45.26,11.44 45.55,9.33 C45.81,7.39 44.88,6.09 43.3,5 C40.08,2.77 35.88,1.87 32.09,1.25 C27.3369791,0.473994068 22.5035491,0.316016871 17.71,0.78 C13.3986638,1.09635166 9.16711665,2.10949145 5.18,3.78 C3.04,4.78 0.24,6.34 0.59,9.07 C1.59,17.19 2.77,25.29 3.86,33.4 C4.36,37.11 4.86,40.82 5.36,44.53 C5.52426378,46.0005336 6.46267739,47.2708252 7.82,47.86 C10.92,49.54 14.76,50.02 18.22,50.34 C22.8199056,50.7554969 27.4548006,50.5503237 32,49.73 C34.88,49.2 40.24,48.33 40.7,44.73 C41.27,40.27 41.9,35.81 42.5,31.36 L42.72,30 C44.35,30.39 49,31.22 48.43,28.06 Z M23.05,2.5 C29.05,2.5 35.92,3.18 41.3,6.14 C42.13,6.6 44.06,7.63 43.48,8.85 C42.9,10.07 41.1,10.68 40,11.12 C38.4292648,11.7002093 36.8139391,12.1516979 35.17,12.47 C28.0317133,13.8840577 20.7008577,14.0363608 13.51,12.92 C10.2630018,12.5851774 7.10448671,11.6599901 4.19,10.19 C3.47,9.78 2.28,9.04 2.61,8.06 C2.8713895,7.53346056 3.28171327,7.09531823 3.79,6.8 C5.98647424,5.38744941 8.42887171,4.40031377 10.99,3.89 C14.9392255,2.94195959 18.9886518,2.47523466 23.05,2.5 L23.05,2.5 Z M38.73,44.65 C38.58,45.82 36.65,46.4 35.73,46.73 C33.8200111,47.3688945 31.8498029,47.8111862 29.85,48.05 C25.4128584,48.6399712 20.9171416,48.6399712 16.48,48.05 C13.7009084,47.8343967 10.9871154,47.0982804 8.48,45.88 C7.78427174,45.5775858 7.31952887,44.9075815 7.28,44.15 C6.28,36.22 5.14,28.29 4.07,20.36 L2.91,11.76 C5.18337798,13.0148296 7.65082886,13.8801275 10.21,14.32 C12.9510005,14.8778232 15.72786,15.2420563 18.52,15.41 C23.9998196,15.8026813 29.507332,15.4968951 34.91,14.5 C37.7887329,14.0859601 40.5696105,13.1578718 43.12,11.76 L41,27.46 C35.9325455,25.7904919 30.9816376,23.7860757 26.18,21.46 C25.9693283,21.3795918 25.765357,21.2826218 25.57,21.17 C25.3,20.97 25.37,21.07 25.24,20.76 C24.99,20.19 24.93,19.76 24.4,19.29 C23.6129758,18.6596618 22.5026936,18.6298974 21.6830279,19.2171635 C20.8633622,19.8044296 20.5344909,20.8653049 20.8782468,21.8132317 C21.2220026,22.7611585 22.154434,23.3646353 23.16,23.29 C23.5047062,23.2328097 23.8407369,23.1320005 24.16,22.99 C24.55,22.87 24.55,22.89 24.96,23.08 C29.8233613,25.4514657 34.8336165,27.5090105 39.96,29.24 C40.73,29.49 40.72,29.24 40.72,29.88 C40.6875204,30.3668775 40.6240585,30.8511915 40.53,31.33 L39.89,36.1 L38.73,44.65 Z M23.3,21 C23.3,21.27 22.92,21.24 22.82,21.07 C22.72,20.9 23.3,20.62 23.3,21 Z M43,28 L43.3,25.79 C44.3,26.36 46,27.22 46.45,28.36 C45.47,28.76 43.92,28.23 43,28 Z" id="Shape"></path>
                </g>
            </g>
        </g>
    </g>
</svg>