<?xml version="1.0" encoding="UTF-8"?>
<svg width="51px" height="49px" viewBox="0 0 51 49" version="1.1" xmlns="http://www.w3.org/2000/svg" xmlns:xlink="http://www.w3.org/1999/xlink">
    <!-- Generator: Sketch 54 (76480) - https://sketchapp.com -->
    <title>Amazon-Elasticsearch-Service</title>
    <desc>Created with Sketch.</desc>
    <g id="AWS-Icons" stroke="none" stroke-width="1" fill="none" fill-rule="evenodd" opacity="0.800000012">
        <g id="Analytics/Amazon-Elasticsearch-Service" transform="translate(-12.000000, -13.000000)" fill="#3C5079" fill-rule="nonzero">
            <g id="Amazon-Elasticsearch-Service" transform="translate(12.000000, 13.000000)">
                <g id="Icon_Test">
                    <path d="M10.5,14.25 L1.5,14.25 C0.94771525,14.25 0.5,14.6977153 0.5,15.25 L0.5,47.25 C0.5,47.8022847 0.94771525,48.25 1.5,48.25 L10.5,48.25 C11.0522847,48.25 11.5,47.8022847 11.5,47.25 L11.5,15.25 C11.5,14.6977153 11.0522847,14.25 10.5,14.25 Z M9.5,46.25 L2.5,46.25 L2.5,16.25 L9.5,16.25 L9.5,46.25 Z" id="Shape"></path>
                    <path d="M24.5,41.67 L24.5,47.25 C24.5,47.8022847 24.0522847,48.25 23.5,48.25 L14.5,48.25 C13.9477153,48.25 13.5,47.8022847 13.5,47.25 L13.5,30 C13.8251478,31.8585735 14.5041035,33.6374375 15.5,35.24 L15.5,46.24 L22.5,46.24 L22.5,41 C23.1482451,41.2749608 23.8169372,41.4989726 24.5,41.67 Z" id="Shape"></path>
                    <path d="M24.5,9.25 L24.5,12.79 C23.815796,12.9740136 23.1470787,13.2114083 22.5,13.5 L22.5,10.25 L15.5,10.25 L15.5,19.25 C14.5041035,20.8525625 13.8251478,22.6314265 13.5,24.49 L13.5,9.25 C13.5,8.69771525 13.9477153,8.25 14.5,8.25 L23.5,8.25 C24.0522847,8.25 24.5,8.69771525 24.5,9.25 Z" id="Shape"></path>
                    <path d="M35.5,42.47 L35.5,46.25 L28.5,46.25 L28.5,42.25 L28.5,42.25 C27.8311531,42.2521862 27.1629359,42.208752 26.5,42.12 L26.5,47.25 C26.5,47.8022847 26.9477153,48.25 27.5,48.25 L36.5,48.25 C37.0522847,48.25 37.5,47.8022847 37.5,47.25 L37.5,44.47 L35.5,42.47 Z M36.5,0.249999899 L27.5,0.249999899 C26.9477153,0.25 26.5,0.69771525 26.5,1.2499999 L26.5,12.38 C27.1628447,12.2903334 27.8311251,12.2468952 28.5,12.2499999 L28.5,12.2499999 L28.5,2.2499999 L35.5,2.2499999 L35.5,14 C36.2006764,14.3710364 36.8696042,14.7991502 37.5,15.28 L37.5,1.28 C37.5081149,1.00962462 37.4063515,0.74749485 37.2179284,0.553419034 C37.0295053,0.359343217 36.7704971,0.249878248 36.5,0.249999899 Z" id="Shape"></path>
                    <path d="M49.5,5.25 L40.5,5.25 C39.9477153,5.25 39.5,5.69771525 39.5,6.25 L39.5,17.09 C40.2710089,17.9224022 40.9422175,18.841958 41.5,19.83 L41.5,7.25 L48.5,7.25 L48.5,38 L50.5,40 L50.5,6.25 C50.5,5.69771525 50.0522847,5.25 49.5,5.25 Z" id="Shape"></path>
                    <path d="M49.29,41.65 L40.29,32.65 C42.9444306,26.8674167 41.0233142,20.0132779 35.7501277,16.4526915 C30.4769413,12.8921051 23.4014609,13.6715185 19.0297576,18.2945567 C14.6580544,22.9175948 14.2749607,30.0255584 18.1244527,35.0916893 C21.9739447,40.1578202 28.9246662,41.6931954 34.55,38.72 L43.4,47.56 C45.0237172,49.1864785 47.6585214,49.1887171 49.2849999,47.5649999 C50.9114785,45.9412828 50.9137171,43.3064786 49.29,41.68 L49.29,41.65 Z M17.5,27.23 C17.5,21.1548678 22.4248678,16.23 28.5,16.23 C34.5751322,16.23 39.5,21.1548678 39.5,27.23 C39.5,33.3051322 34.5751322,38.23 28.5,38.23 C22.4248678,38.23 17.5,33.3051322 17.5,27.23 L17.5,27.23 Z M47.87,46.12 C47.0235837,46.961559 45.6564163,46.961559 44.81,46.12 L36.29,37.6 C37.4588484,36.7169822 38.4726828,35.6456972 39.29,34.43 L47.89,43.07 C48.7249009,43.9184924 48.7159563,45.2825296 47.87,46.12 Z" id="Shape"></path>
                    <path d="M24.07,32 C22.1722434,30.6422074 21.1542421,28.3665019 21.4069073,26.0467517 C21.6595725,23.7270014 23.1436267,21.7238177 25.289195,20.8064205 C27.4347633,19.8890233 29.9083114,20.2000245 31.76,21.62 L30.57,23.23 C29.2892029,22.2814598 27.5996573,22.0882697 26.1377989,22.7232025 C24.6759404,23.3581353 23.6638601,24.7247296 23.4827988,26.3082025 C23.3017376,27.8916755 23.9792028,29.4514599 25.26,30.4 L24.07,32 Z" id="Shape"></path>
                </g>
            </g>
        </g>
    </g>
</svg>