<?xml version="1.0" encoding="UTF-8"?>
<svg width="51px" height="51px" viewBox="0 0 51 51" version="1.1" xmlns="http://www.w3.org/2000/svg" xmlns:xlink="http://www.w3.org/1999/xlink">
    <!-- Generator: Sketch 54 (76480) - https://sketchapp.com -->
    <title>Amazon-EMR</title>
    <desc>Created with Sketch.</desc>
    <g id="AWS-Icons" stroke="none" stroke-width="1" fill="none" fill-rule="evenodd" opacity="0.800000012">
        <g id="Analytics/Amazon-EMR" transform="translate(-12.000000, -12.000000)" fill="#3C5079" fill-rule="nonzero">
            <g id="Amazon-EMR" transform="translate(12.000000, 12.000000)">
                <g id="Icon_Test">
                    <path d="M44.62,29.39 C43.8034906,29.3869818 42.9968128,29.5681425 42.26,29.92 L40,25.57 L42.8,20.29 C45.2218181,21.1487196 47.9154765,20.2161169 49.2878701,18.0437591 C50.6602636,15.8714014 50.3456083,13.0382873 48.53,11.22 C47.4984758,10.1879915 46.099138,9.60817438 44.64,9.60817438 C43.180862,9.60817438 41.7815242,10.1879915 40.75,11.22 C39.4178495,12.5595572 38.8632809,14.4873434 39.28,16.33 L35.73,17.43 L31.78,10 L31.85,9.93 C33.9215151,7.8581636 34.0053015,4.52615659 32.040535,2.35282419 C30.0757686,0.179491784 26.7522228,-0.0721709398 24.4826005,1.78052866 C22.2129782,3.63322827 21.7940792,6.93986016 23.53,9.3 L19.25,15.2 C14.1741424,12.1039328 7.60102112,13.1543057 3.7427914,17.6780238 C-0.115438321,22.201742 -0.115438321,28.858258 3.7427914,33.3819762 C7.60102112,37.9056943 14.1741424,38.9560672 19.25,35.86 L23.51,41.77 C21.7666882,44.1273209 22.1789949,47.4377169 24.447281,49.2953971 C26.7155672,51.1530772 30.0422944,50.9048738 32.0098031,48.7311656 C33.9773118,46.5574574 33.8938181,43.222529 31.82,41.15 L31.76,41.09 L35.64,33.76 L39.09,34.85 L39.09,34.93 C39.09,37.9675661 41.5524339,40.43 44.59,40.43 C47.6275661,40.43 50.09,37.9675661 50.09,34.93 C50.09,31.8924339 47.6275661,29.43 44.59,29.43 L44.62,29.39 Z M42.15,12.64 C43.5427249,11.2886014 45.7572751,11.2886014 47.15,12.64 C48.4963126,14.0140745 48.4813245,16.2171382 47.1164409,17.5727677 C45.7515573,18.9283971 43.5484427,18.9283971 42.1835591,17.5727677 C40.8186755,16.2171382 40.8036874,14.0140745 42.15,12.64 L42.15,12.64 Z M40.06,18.18 C40.2543918,18.4757556 40.4789257,18.7505582 40.73,19 L41.05,19.29 L38.86,23.43 L36.65,19.24 L40.06,18.18 Z M25.48,3.53 C26.8441433,2.14928813 29.0692881,2.13585667 30.45,3.5 C31.8307119,4.86414333 31.8441433,7.08928813 30.48,8.47 C29.0894157,9.82666829 26.8705843,9.82666829 25.48,8.47 C24.1196505,7.10428739 24.1196505,4.89571261 25.48,3.53 L25.48,3.53 Z M25,10.64 C25.8945455,11.2135117 26.9374693,11.5124832 28,11.5 C28.7315043,11.4994765 29.4555823,11.3533011 30.13,11.07 L33.79,18.07 L24.22,21.07 C23.6131353,19.5377475 22.6896726,18.1508497 21.51,17 C21.3,16.79 21.09,16.59 20.87,16.4 L25,10.64 Z M5.81,32.64 C2.92037735,29.751816 2.05534227,25.4072314 3.6183356,21.6325025 C5.18132893,17.8577737 8.86447361,15.3964435 12.95,15.3964435 C17.0355264,15.3964435 20.7186711,17.8577737 22.2816644,21.6325025 C23.8446577,25.4072314 22.9796226,29.751816 20.09,32.64 C16.1427276,36.564293 9.76727238,36.564293 5.82,32.64 L5.81,32.64 Z M30.44,47.47 C29.0494157,48.8266683 26.8305843,48.8266683 25.44,47.47 C24.0936874,46.0959255 24.1086755,43.8928618 25.4735591,42.5372323 C26.8384427,41.1816029 29.0415573,41.1816029 30.4064409,42.5372323 C31.7713245,43.8928618 31.7863126,46.0959255 30.44,47.47 L30.44,47.47 Z M30.12,39.94 C28.4515997,39.2289338 26.5399066,39.3860593 25.01,40.36 L20.89,34.63 C21.11,34.44 21.31,34.25 21.51,34.05 C22.6534774,32.9105759 23.5518799,31.5493599 24.15,30.05 L33.73,33.05 L30.12,39.94 Z M34.68,31.32 L24.75,28.18 C25.1349117,26.4444183 25.1349117,24.6455817 24.75,22.91 L34.68,19.84 L37.68,25.58 L34.68,31.32 Z M39.52,32.84 L36.62,31.93 L38.84,27.72 L40.63,31.12 C40.1453382,31.6106455 39.767419,32.1962501 39.52,32.84 L39.52,32.84 Z M47.1,37.36 C45.7072751,38.7113986 43.4927249,38.7113986 42.1,37.36 C40.7536874,35.9859255 40.7686755,33.7828618 42.1335591,32.4272323 C43.4984427,31.0716029 45.7015573,31.0716029 47.0664409,32.4272323 C48.4313245,33.7828618 48.4463126,35.9859255 47.1,37.36 L47.1,37.36 Z M18,24.5 L18,26.5 L14,26.5 L14,30.5 L12,30.5 L12,26.5 L8,26.5 L8,24.5 L12,24.5 L12,20.5 L14,20.5 L14,24.5 L18,24.5 Z" id="Shape"></path>
                </g>
            </g>
        </g>
    </g>
</svg>