<?xml version="1.0" encoding="UTF-8"?>
<svg width="38px" height="50px" viewBox="0 0 38 50" version="1.1" xmlns="http://www.w3.org/2000/svg" xmlns:xlink="http://www.w3.org/1999/xlink">
    <!-- Generator: Sketch 55.1 (78136) - https://sketchapp.com -->
    <title>Application Security Groups</title>
    <desc>Created with Sketch.</desc>
    <g id="Multi-Cloud" stroke="none" stroke-width="1" fill="none" fill-rule="evenodd">
        <g id="Application-Security-Groups" fill-rule="nonzero">
            <path d="M31.858,5.96 C20.842,4.745 18.999,0 18.999,0 C18.999,0 16.52,6.242 0.673,6.242 L0.673,31.853 C0.673,34.95 2.394,37.85 4.777,40.385 C10.179,46.133 19,50.001 19,50.001 C19,50.001 37.327,41.972 37.327,31.852 L37.327,6.242 C35.289,6.242 33.476,6.139 31.858,5.96 Z" id="Path" fill="#5A616B"></path>
            <path d="M23.533,16.543 L31.858,5.96 C20.842,4.745 18.999,0 18.999,0 C18.999,0 16.52,6.242 0.673,6.242 L0.673,31.853 C0.673,34.95 2.394,37.85 4.777,40.385 L10.931,32.563 L23.533,16.543 Z" id="Path" fill="#FFFFFF" opacity="0.2"></path>
            <polygon id="Path" fill="#59B4D9" points="7.971 29.998 8.001 29.998 8.001 15.001 28.114 14.971 28.115 14.971 7.971 15.001"></polygon>
            <path d="M30.429,13 L7.413,13 C6.631,13 6,13.699 6,14.48 L6,30.53 C6,31.306 6.631,31.998 7.413,31.998 L15.986,31.998 L15.98,32 C16.775,34.981 15.715,35.423 11.083,35.429 L11,35.429 L11,37 L27,37 L27,35.429 L26.917,35.429 C22.285,35.424 21.225,34.981 22.02,32 L22.014,31.998 L30.429,31.998 C31.209,31.998 32,31.306 32,30.53 L32,14.48 C32,13.697 31.209,13 30.429,13 Z M29.97,29.998 L7.97,29.998 L7.97,15.001 L29.97,15.001 L29.97,29.998 L29.97,29.998 Z" id="Shape" fill="#FFFFFF" opacity="0.95"></path>
            <path d="M19.014,22.045 C18.989332,22.0444839 18.9652172,22.037594 18.944,22.025 L14.366,19.382 C14.3235971,19.3568192 14.2974317,19.3113142 14.297,19.262 C14.297,19.213 14.324,19.167 14.366,19.142 L18.916,16.517 C18.9585474,16.4931297 19.0104526,16.4931297 19.053,16.517 L23.633,19.161 C23.676,19.185 23.701,19.231 23.701,19.281 C23.701,19.331 23.676,19.376 23.633,19.401 L19.084,22.026 C19.0625269,22.0378526 19.038519,22.044369 19.014,22.045" id="Path" fill="#FFFFFF" opacity="0.95"></path>
            <path d="M18.357,28.4680203 C18.3323366,28.4684361 18.3080582,28.4618462 18.287,28.449 L13.723,25.815 C13.6789098,25.7912631 13.6515801,25.745072 13.6519952,25.695 L13.6519952,20.409 C13.6519952,20.359 13.679,20.314 13.723,20.289 C13.7659507,20.2639619 13.8190493,20.2639619 13.862,20.289 L18.426,22.922 C18.4678919,22.9480273 18.4935497,22.9936832 18.494,23.043 L18.494,28.329 C18.494,28.379 18.467,28.424 18.426,28.449 C18.4048255,28.4606992 18.3811786,28.4672107 18.357,28.4680203" id="Path" fill="#FFFFFF" opacity="0.8"></path>
            <path d="M19.649,28.468 C19.6237612,28.468 19.5989543,28.4614501 19.577,28.449 C19.5352185,28.4234688 19.5098118,28.3779643 19.509999,28.329 L19.509999,23.076 C19.509999,23.027 19.537,22.981 19.577,22.956 L24.141,20.323 C24.1832153,20.2978911 24.2357847,20.2978911 24.278,20.323 C24.322,20.347 24.3480044,20.393 24.3480044,20.443 L24.3480044,25.695 C24.3483976,25.7447994 24.3215444,25.7908335 24.278,25.815 L19.716,28.449 C19.6958519,28.4614039 19.6726601,28.468 19.649,28.468" id="Path" fill="#FFFFFF" opacity="0.6"></path>
        </g>
    </g>
</svg>