<?xml version="1.0" encoding="UTF-8"?>
<svg width="50px" height="44px" viewBox="0 0 50 44" version="1.1" xmlns="http://www.w3.org/2000/svg" xmlns:xlink="http://www.w3.org/1999/xlink">
    <!-- Generator: Sketch 55.1 (78136) - https://sketchapp.com -->
    <title>Disks</title>
    <desc>Created with Sketch.</desc>
    <g id="Multi-Cloud" stroke="none" stroke-width="1" fill="none" fill-rule="evenodd">
        <g id="Disks" fill-rule="nonzero">
            <path d="M50,34.198 C50,39.199 38.806,43.252 25,43.252 C11.194,43.252 0,39.199 0,34.198 L0,29.318 L50,29.318 L50,34.198 Z" id="Path" fill="#5A616B"></path>
            <path d="M50,29.318 C50,34.319 38.806,38.372 25,38.372 C11.194,38.372 0,34.319 0,29.318 C0,24.318 11.193,20.264 25,20.264 C38.807,20.264 50,24.318 50,29.318" id="Path" fill="#7D8186"></path>
            <path d="M33.013,28.797 C33.013,30.127 29.425,31.204 24.999,31.204 C20.573,31.204 16.984,30.127 16.984,28.797 C16.984,27.467 20.573,26.39 24.999,26.39 C29.425,26.39 33.013,27.468 33.013,28.797" id="Path" fill="#5A616B"></path>
            <path d="M43.071,23.115 C39.569,21.788 34.967,20.846 29.792,20.482 L26.548,26.486 C28.144,26.58 29.571,26.815 30.675,27.148 L43.071,23.115 Z" id="Path" fill="#FFFFFF" opacity="0.25"></path>
            <path d="M5.902,35.208 C9.503,36.751 14.5,37.851 20.19,38.253 L23.983,31.233 C22.404,31.173 20.969,30.976 19.815,30.681 L5.902,35.208 Z" id="Path" fill="#FFFFFF" opacity="0.25"></path>
            <path d="M50,14.682 C50,19.683 38.806,23.736 25,23.736 C11.194,23.736 0,19.682 0,14.682 L0,9.802 L50,9.802 L50,14.682 Z" id="Path" fill="#464D57"></path>
            <path d="M50,9.802 C50,14.803 38.806,18.856 25,18.856 C11.194,18.856 0,14.802 0,9.802 C0,4.802 11.193,0.748 25,0.748 C38.807,0.748 50,4.801 50,9.802" id="Path" fill="#5A616B"></path>
            <path d="M33.013,9.281 C33.013,10.611 29.425,11.688 24.999,11.688 C20.573,11.688 16.984,10.611 16.984,9.281 C16.984,7.951 20.573,6.874 24.999,6.874 C29.425,6.874 33.013,7.951 33.013,9.281" id="Path" fill="#464D57"></path>
            <path d="M43.071,3.549 C39.569,2.222 34.967,1.28 29.792,0.916 L26.548,6.92 C28.144,7.014 29.571,7.249 30.675,7.582 L43.071,3.549 Z" id="Path" fill="#FFFFFF" opacity="0.25"></path>
            <path d="M5.902,15.642 C9.503,17.185 14.5,18.285 20.19,18.687 L23.983,11.667 C22.404,11.607 20.969,11.41 19.815,11.115 L5.902,15.642 Z" id="Path" fill="#FFFFFF" opacity="0.25"></path>
        </g>
    </g>
</svg>