<?xml version="1.0" encoding="UTF-8"?>
<svg width="50px" height="50px" viewBox="0 0 50 50" version="1.1" xmlns="http://www.w3.org/2000/svg" xmlns:xlink="http://www.w3.org/1999/xlink">
    <!-- Generator: Sketch 55.1 (78136) - https://sketchapp.com -->
    <title>Load Balancers</title>
    <desc>Created with Sketch.</desc>
    <g id="Multi-Cloud" stroke="none" stroke-width="1" fill="none" fill-rule="evenodd">
        <g id="Load-Balancers" transform="translate(0.000000, -1.000000)" fill-rule="nonzero">
            <path d="M25.001,51 C23.769,51 22.609,50.52 21.74,49.648 L1.351,29.26 C0.492,28.401 0,27.214 0,25.999 C0,24.785 0.492,23.597 1.351,22.739 L21.74,2.351 C22.611,1.479 23.769,0.999 25.001,0.999 C26.232,0.999 27.391,1.479 28.262,2.351 L48.648,22.739 C49.521,23.607 50,24.766 50,25.999 C50,27.232 49.521,28.391 48.647,29.262 L28.262,49.648 C27.392,50.52 26.232,51 25.001,51" id="Path" fill="#5A616B"></path>
            <path d="M45.613,25.66 L39,19.048 L39,23.716 L31.984,23.71 C31.307,21.292 29.411,19.382 27,18.69 L27,12 L31.613,12 L25,5.387 L18.388,12 L23,12 L23,18.689 C20.593,19.381 18.699,21.285 18.019,23.697 L11,23.691 L11,19.073 L4.387,25.686 L11,32.298 L11,27.63 L18.022,27.636 C18.705,30.043 20.596,31.941 23,32.632 L23,37.268 C22,37.996 20.472,39.526 20.472,41.308 C20.472,43.789 22.505,45.808 24.986,45.808 C27.467,45.808 29.496,43.789 29.496,41.308 C29.496,39.546 28,38.034 27,37.295 L27,32.632 C29.399,31.943 31.289,30.049 31.975,27.649 L39,27.655 L39,32.273 L45.613,25.66 Z" id="Path" fill="#FFFFFF"></path>
            <path d="M25,20.402 C22.101,20.402 19.742,22.761 19.742,25.66 C19.742,28.559 22.101,30.918 25,30.918 C27.899,30.918 30.258,28.56 30.258,25.66 C30.258,22.76 27.899,20.402 25,20.402 Z" id="Path" fill="#7D8186"></path>
            <path d="M28.262,2.351 C27.391,1.479 26.233,0.999 25.001,0.999 C23.77,0.999 22.612,1.479 21.741,2.351 L1.352,22.739 C0.492,23.597 0,24.785 0,25.999 C0,27.214 0.492,28.402 1.352,29.26 L12.895,40.804 L34.61,8.698 L28.262,2.351 Z" id="Path" fill="#FFFFFF" opacity="0.15"></path>
        </g>
    </g>
</svg>