<?xml version="1.0" encoding="UTF-8"?>
<svg width="39px" height="51px" viewBox="0 0 39 51" version="1.1" xmlns="http://www.w3.org/2000/svg" xmlns:xlink="http://www.w3.org/1999/xlink">
    <!-- Generator: Sketch 55.1 (78136) - https://sketchapp.com -->
    <title>SQL Databases</title>
    <desc>Created with Sketch.</desc>
    <g id="Multi-Cloud" stroke="none" stroke-width="1" fill="none" fill-rule="evenodd">
        <g id="SQL-Databases" fill-rule="nonzero">
            <path d="M0.757,7.288 L0.757,43.399 C0.757,47.148 9.149,50.188 19.5,50.188 L19.5,7.288 L0.757,7.288 Z" id="Path" fill="#464D57"></path>
            <path d="M19.243,50.187 L19.5,50.187 C29.851,50.187 38.243,47.149 38.243,43.399 L38.243,7.288 L19.243,7.288 L19.243,50.187 Z" id="Path" fill="#5A616B"></path>
            <path d="M19.243,50.187 L19.5,50.187 C29.851,50.187 38.243,47.149 38.243,43.399 L38.243,7.288 L19.243,7.288 L19.243,50.187 Z" id="Path" fill="#5A616B" opacity="0.15"></path>
            <path d="M38.243,7.288 C38.243,11.037 29.851,14.076 19.5,14.076 C9.149,14.076 0.757,11.037 0.757,7.288 C0.757,3.539 9.149,0.5 19.5,0.5 C29.851,0.5 38.243,3.539 38.243,7.288" id="Path" fill="#FFFFFF"></path>
            <path d="M34.411,6.897 C34.411,9.372 27.735,11.376 19.5,11.376 C11.265,11.376 4.588,9.372 4.588,6.897 C4.588,4.423 11.265,2.418 19.5,2.418 C27.735,2.418 34.411,4.423 34.411,6.897" id="Path" fill="#7D8186"></path>
            <path d="M31.287,9.634 C33.239,8.877 34.412,7.929 34.412,6.899 C34.412,4.424 27.736,2.419 19.5,2.419 C11.265,2.419 4.589,4.424 4.589,6.899 C4.589,7.929 5.762,8.877 7.714,9.634 C10.44,8.576 14.7,7.893 19.5,7.893 C24.301,7.893 28.559,8.576 31.287,9.634" id="Path" fill="#CDCFD2"></path>
            <path d="M13.547,32.354 C13.547,33.476 13.14,34.345 12.326,34.961 C11.512,35.577 10.388,35.885 8.953,35.885 C7.732,35.885 6.712,35.665 5.892,35.225 L5.892,32.585 C6.838,33.388 7.88,33.79 9.018,33.79 C9.568,33.79 9.993,33.68 10.293,33.46 C10.593,33.24 10.743,32.949 10.743,32.585 C10.743,32.228 10.599,31.917 10.31,31.653 C10.021,31.389 9.434,31.048 8.549,30.63 C6.745,29.784 5.843,28.628 5.843,27.166 C5.843,26.105 6.236,25.254 7.023,24.613 C7.809,23.973 8.854,23.652 10.157,23.652 C11.312,23.652 12.268,23.804 13.028,24.106 L13.028,26.572 C12.231,26.022 11.323,25.747 10.306,25.747 C9.795,25.747 9.391,25.855 9.094,26.072 C8.80821984,26.2682037 8.64083721,26.5954462 8.649,26.942 C8.649,27.316 8.768,27.623 9.008,27.862 C9.247,28.101 9.738,28.397 10.48,28.749 C11.586,29.272 12.373,29.802 12.844,30.341 C13.312,30.881 13.547,31.552 13.547,32.354 L13.547,32.354 Z M26.274,29.682 C26.274,31.073 25.957,32.281 25.325,33.303 C24.692,34.326 23.802,35.043 22.653,35.456 L26.084,38.632 L22.62,38.632 L20.17,35.885 C19.12,35.847 18.172,35.569 17.328,35.052 C16.484,34.536 15.832,33.827 15.373,32.928 C14.914,32.029 14.684,31.026 14.684,29.921 C14.684,28.695 14.933,27.602 15.43,26.642 C15.928,25.682 16.627,24.944 17.529,24.427 C18.431,23.911 19.464,23.652 20.631,23.652 C21.719,23.652 22.694,23.902 23.555,24.403 C24.415,24.903 25.083,25.615 25.559,26.539 C26.036,27.463 26.274,28.511 26.274,29.682 L26.274,29.682 Z M23.47,29.831 C23.47,28.632 23.209,27.685 22.686,26.989 C22.163,26.293 21.449,25.945 20.541,25.945 C19.617,25.945 18.878,26.294 18.322,26.992 C17.767,27.691 17.489,28.62 17.489,29.78 C17.489,30.935 17.761,31.857 18.305,32.547 C18.85,33.237 19.572,33.582 20.474,33.582 C21.393,33.582 22.121,33.248 22.66,32.58 C23.2,31.913 23.47,30.996 23.47,29.831 Z M35.273,35.679 L28.229,35.679 L28.229,23.851 L30.893,23.851 L30.893,33.518 L35.273,33.518 L35.273,35.679 Z" id="Shape" fill="#FFFFFF"></path>
        </g>
    </g>
</svg>