<?xml version="1.0" encoding="UTF-8"?>
<svg width="52px" height="48px" viewBox="0 0 52 48" version="1.1" xmlns="http://www.w3.org/2000/svg" xmlns:xlink="http://www.w3.org/1999/xlink">
    <!-- Generator: Sketch 55.1 (78136) - https://sketchapp.com -->
    <title>Virtual machine</title>
    <desc>Created with Sketch.</desc>
    <g id="Multi-Cloud" stroke="none" stroke-width="1" fill="none" fill-rule="evenodd">
        <g id="Virtual-machine" fill="#5A616B" fill-rule="nonzero">
            <path d="M48.8541503,0 C50.3661784,0 52.0172436,1.23299566 52,2.86541245 L52,35.6874096 C52,37.0593343 50.3661784,38.431259 48.8541503,38.431259 L32.7084706,38.431259 C31.0574054,44.4399421 32.4303964,44.9956585 42.4236858,44.9956585 L42.4236858,48 L9.57617816,48 L9.57617816,44.9956585 C19.5694675,44.9956585 20.2646529,44.4573082 18.6135877,38.431259 L2.86763956,38.431259 C1.23395399,38.431259 0,36.9377713 0,35.4269175 L0,2.86541245 C0,1.23299566 1.35561143,0 2.86763956,0 L48.8541503,0 Z M47.8982704,34.1939219 L47.8982704,4.0984081 L4.10159355,3.95947902 L3.82351941,34.1939219 L47.8982704,34.1939219 Z M34,13.4383633 L34,13.5616367 L25.4353963,18.28125 L17,13.5616367 L17,13.4383633 L25.4353963,8.71875 L34,13.4383633 Z M26,19.7194969 L34,15 L34,24.2981132 L26,29 L26,19.7194969 Z M25,19.7194969 L25,29 L17,24.2981132 L17,15 L25,19.7194969 Z" id="Combined-Shape"></path>
        </g>
    </g>
</svg>