<?xml version="1.0" encoding="UTF-8"?>
<svg width="50px" height="30px" viewBox="0 0 50 30" version="1.1" xmlns="http://www.w3.org/2000/svg" xmlns:xlink="http://www.w3.org/1999/xlink">
    <!-- Generator: Sketch 55.1 (78136) - https://sketchapp.com -->
    <title>Virtual Networks</title>
    <desc>Created with Sketch.</desc>
    <g id="Multi-Cloud" stroke="none" stroke-width="1" fill="none" fill-rule="evenodd">
        <g id="Virtual-Networks" transform="translate(-1.000000, 0.000000)" fill-rule="nonzero">
            <path d="M50.7,15.7 C51.2,15.2 51.1,14.4 50.7,13.9 L48.3,11.5 L37.5,1 C37,0.5 36.3,0.5 35.8,1 L35.8,1 C35.3,1.5 35.2,2.3 35.8,2.8 L47.1,13.9 C47.6,14.4 47.6,15.2 47.1,15.7 L35.6,27.2 C35.1,27.7 35.1,28.5 35.6,29 L35.6,29 C36.1,29.5 36.9,29.4 37.3,29 L48,18.4 C48,18.4 48,18.4 48.1,18.3 L50.7,15.7 Z" id="Path" fill="#5A616B"></path>
            <path d="M1.3,15.7 C0.8,15.2 0.9,14.4 1.3,13.9 L3.7,11.5 L14.5,1 C15,0.5 15.7,0.5 16.2,1 L16.2,1 C16.7,1.5 16.8,2.3 16.2,2.8 L5.1,13.9 C4.6,14.4 4.6,15.2 5.1,15.7 L16.4,27.2 C16.9,27.7 16.9,28.5 16.4,29 L16.4,29 C15.9,29.5 15.1,29.4 14.7,29 L3.8,18.5 C3.8,18.5 3.8,18.5 3.7,18.4 L1.3,15.7 Z" id="Path" fill="#5A616B"></path>
            <path d="M19.2,14.8 C19.2,16.7 17.6,18.1 15.9,18.1 C14.2,18.1 12.4,16.5 12.4,14.8 C12.4,13.1 13.8,11.5 15.9,11.5 C17.9,11.5 19.2,13.1 19.2,14.8 Z" id="Path" fill="#7D8186"></path>
            <path d="M29.3,14.8 C29.3,16.7 27.7,18.1 26,18.1 C24.3,18.1 22.5,16.5 22.5,14.8 C22.5,13.1 24.1,11.5 26,11.5 C27.9,11.5 29.3,13.1 29.3,14.8 Z" id="Path" fill="#7D8186"></path>
            <circle id="Oval" fill="#7D8186" cx="36.2" cy="14.8" r="3.3"></circle>
        </g>
    </g>
</svg>