<?xml version="1.0" encoding="UTF-8"?>
<svg width="43px" height="51px" viewBox="0 0 43 51" version="1.1" xmlns="http://www.w3.org/2000/svg" xmlns:xlink="http://www.w3.org/1999/xlink">
    <!-- Generator: Sketch 54 (76480) - https://sketchapp.com -->
    <title>Amazon-DynamoDB</title>
    <desc>Created with Sketch.</desc>
    <g id="AWS-Icons" stroke="none" stroke-width="1" fill="none" fill-rule="evenodd" opacity="0.800000012">
        <g id="Database/Amazon-DynamoDB" transform="translate(-16.000000, -12.000000)" fill="#3C5079" fill-rule="nonzero">
            <g id="Amazon-DynamoDB" transform="translate(16.000000, 12.000000)">
                <g id="Icon_Test">
                    <path d="M34.25,28.48 L34.25,29.44 C34.2032666,30.611073 33.6527471,31.7048205 32.74,32.44 C33.6591118,33.1700196 34.2112026,34.2668888 34.25,35.44 L34.25,43.44 C34.2598485,43.5096536 34.2598485,43.5803464 34.25,43.65 C33.98,48.06 25.38,50.42 17.25,50.42 C9.12,50.42 0.52,48.06 0.25,43.67 C0.244109591,43.6001239 0.244109591,43.5298761 0.25,43.46 L0.25,35.46 C0.298028618,34.2892623 0.848293931,33.19602 1.76,32.46 C0.847252947,31.7248205 0.296733393,30.631073 0.25,29.46 L0.25,21.46 C0.298028618,20.2892623 0.848293931,19.19602 1.76,18.46 C0.85998397,17.7362028 0.310827684,16.6633478 0.25,15.51 L0.25,7.46 C0.25,2.9 9.01,0.46 17.25,0.46 C23.14,0.46 28.32,1.63 31.32,3.46 L25.83,3.46 C23.0205022,2.78350751 20.1397699,2.44775782 17.25,2.46 C8.67,2.46 2.25,5.09 2.25,7.46 C2.25,9.83 8.67,12.46 17.25,12.46 L18.53,12.46 L17.47,14.46 L17.25,14.46 C11.41,14.46 5.31,13.24 2.25,10.9 L2.25,15.52 C2.27,16.2 2.87,16.98 3.94,17.67 C6.3,19.18 10.57,20.2 15.3,20.43 L15.25,22.43 C10.44,22.21 6.2,21.24 3.44,19.69 C2.7994254,20.0873471 2.36466481,20.7449681 2.25,21.49 C2.25,23.86 8.67,26.49 17.25,26.49 C18.24,26.49 19.17,26.46 20.17,26.39 L19.6,28.39 C18.83,28.46 18.04,28.46 17.25,28.46 C11.41,28.46 5.31,27.24 2.25,24.9 L2.25,29.53 C2.26,30.2 2.86,30.97 3.94,31.68 C6.65,33.4 11.75,34.49 17.25,34.49 C17.48,34.49 17.7,34.49 17.92,34.49 L17.36,36.49 L17.25,36.49 C11.67,36.49 6.58,35.45 3.44,33.7 C2.7994254,34.0973471 2.36466481,34.7549681 2.25,35.5 C2.25,37.76 8.17,40.31 16.25,40.5 L17.25,40.5 C19.0429219,40.487247 20.8332118,40.3603235 22.61,40.12 C28.37,39.31 32.25,37.32 32.25,35.49 C32.1353352,34.7449681 31.7005746,34.0873471 31.06,33.69 C29.9765768,34.2818996 28.8291561,34.748249 27.64,35.08 L34.25,28.48 Z M32.25,43.48 L32.25,38.88 C29.19,41.2 23.09,42.42 17.25,42.42 C11.41,42.42 5.31,41.2 2.25,38.88 L2.25,43.48 C2.25,45.87 8.67,48.48 17.25,48.48 C25.83,48.48 32.25,45.84 32.25,43.48 Z M5.25,16.77 C4.55964406,16.77 4,16.2103559 4,15.52 C4,14.8296441 4.55964406,14.27 5.25,14.27 C5.94035594,14.27 6.5,14.8296441 6.5,15.52 C6.5,16.2103559 5.94035594,16.77 5.25,16.77 Z M5.25,30.77 C4.55964406,30.77 4,30.2103559 4,29.52 C4,28.8296441 4.55964406,28.27 5.25,28.27 C5.94035594,28.27 6.5,28.8296441 6.5,29.52 C6.5,30.2103559 5.94035594,30.77 5.25,30.77 Z M5.25,44.77 C4.55964406,44.77 4,44.2103559 4,43.52 C4,42.8296441 4.55964406,42.27 5.25,42.27 C5.94035594,42.27 6.5,42.8296441 6.5,43.52 C6.5,44.2103559 5.94035594,44.77 5.25,44.77 Z M19.75,39.48 C19.5739138,39.4781713 19.4014328,39.4298766 19.25,39.34 C18.8491539,39.1091866 18.6589137,38.6335863 18.79,38.19 L24.41,19.48 L18.75,19.48 C18.3945625,19.4845415 18.0634309,19.3000569 17.8802422,18.9954287 C17.6970536,18.6908004 17.689347,18.3118237 17.86,18 L23.86,6 C24.0294502,5.66372035 24.3734418,5.4511413 24.75,5.45 L37.75,5.45 C38.0788827,5.43364528 38.3947368,5.58024822 38.594541,5.84199162 C38.7943451,6.10373503 38.852486,6.44706564 38.75,6.76 L36.19,14.45 L41.8,14.45 C42.1994228,14.4515188 42.5596313,14.6905786 42.7161852,15.0580454 C42.872739,15.4255121 42.7956066,15.8508947 42.52,16.14 L20.52,39.14 C20.3258533,39.3610959 20.0441878,39.4854678 19.75,39.48 Z M20.37,17.48 L25.75,17.48 C26.0647573,17.48 26.3611456,17.6281942 26.55,17.88 C26.7388544,18.1318058 26.798132,18.457833 26.71,18.76 L21.9,34.76 L39.41,16.46 L34.75,16.46 C34.4186799,16.4776044 34.1002009,16.3297315 33.8998484,16.0652663 C33.699496,15.8008011 33.6433606,15.454183 33.75,15.14 L36.31,7.46 L25.31,7.46 L20.37,17.48 Z" id="Combined-Shape"></path>
                </g>
            </g>
        </g>
    </g>
</svg>