<?xml version="1.0" encoding="UTF-8"?>
<svg width="51px" height="51px" viewBox="0 0 51 51" version="1.1" xmlns="http://www.w3.org/2000/svg" xmlns:xlink="http://www.w3.org/1999/xlink">
    <!-- Generator: Sketch 54 (76480) - https://sketchapp.com -->
    <title>Amazon-RDS</title>
    <desc>Created with Sketch.</desc>
    <g id="AWS-Icons" stroke="none" stroke-width="1" fill="none" fill-rule="evenodd" opacity="0.800000012">
        <g id="Database/Amazon-RDS" transform="translate(-12.000000, -12.000000)" fill="#3C5079" fill-rule="nonzero">
            <g id="Amazon-RDS" transform="translate(12.000000, 12.000000)">
                <g id="Icon_Test" opacity="0.979999959">
                    <path d="M36.45,16.23 L36.5,16.23 L36.5,34.77 C36.5,37.67 30.85,38.99 25.5,38.99 C20.15,38.99 14.45,37.71 14.5,34.71 L14.5,16.66 C14.4624895,16.519865 14.4456451,16.3750031 14.45,16.23 C14.45,13.33 20.14,11.99 25.45,11.99 C30.76,11.99 36.45,13.33 36.45,16.23 Z M25.47,14 C19.64,14 16.47,15.58 16.47,16.24 C16.47,16.9 19.62,18.48 25.47,18.48 C31.32,18.48 34.47,16.89 34.47,16.24 C34.47,15.59 31.3,14 25.47,14 Z M34.47,34.78 L34.47,31.65 C32.33,32.78 28.82,33.32 25.47,33.32 C22.12,33.32 18.58,32.77 16.47,31.62 L16.47,34.78 C16.47,35.42 19.63,37 25.47,37 C31.31,37 34.47,35.42 34.47,34.78 Z M34.47,29.09 L34.5,25.29 C32.36,26.42 28.85,26.96 25.5,26.96 C22.15,26.96 18.61,26.41 16.5,25.27 L16.5,29.09 L16.47,29.09 C16.47,29.73 19.62,31.33 25.47,31.33 C31.32,31.33 34.47,29.73 34.47,29.09 Z M34.47,22.72 L34.5,18.78 C32.41,19.93 28.87,20.47 25.5,20.47 C22.13,20.47 18.63,19.95 16.5,18.82 L16.5,22.72 L16.47,22.72 C16.47,23.37 19.62,24.97 25.47,24.97 C31.32,24.97 34.47,23.37 34.47,22.72 Z M3.91,48.51 L10.5,48.51 L10.5,50.51 L1.5,50.51 C0.94771525,50.51 0.5,50.0622847 0.5,49.51 L0.5,40.51 L2.5,40.51 L2.5,47.08 L10,39.59 L11.4,41 L3.91,48.51 Z M50.5,40.51 L50.5,49.51 C50.5,50.0622847 50.0522847,50.51 49.5,50.51 L40.5,50.51 L40.5,48.51 L47.09,48.51 L39.7,41.1 L41.11,39.7 L48.5,47.08 L48.5,40.51 L50.5,40.51 Z M50.5,1.51 L50.5,10.51 L48.5,10.51 L48.5,3.91 L41.11,11.3 L39.7,9.89 L47.08,2.51 L40.5,2.51 L40.5,0.51 L49.5,0.51 C50.0522847,0.51 50.5,0.95771525 50.5,1.51 Z M11.4,10 L10,11.4 L2.5,3.91 L2.5,10.49 L0.5,10.49 L0.5,1.49 C0.5,0.93771525 0.94771525,0.49 1.5,0.49 L10.5,0.49 L10.5,2.49 L3.91,2.49 L11.4,10 Z M10.16,34.46 C4.05,32.26 0.55,28.9 0.55,25.25 C0.55,21.6 4.05,18.25 10.16,16.04 L10.84,17.92 C5.65,19.79 2.55,22.53 2.55,25.25 C2.55,27.97 5.65,30.71 10.84,32.58 L10.16,34.46 Z M40.28,34.68 L39.64,32.78 C45.19,30.91 48.5,28.09 48.5,25.25 C48.5,22.41 45.19,19.59 39.64,17.71 L40.28,15.82 C46.77,18 50.5,21.46 50.5,25.25 C50.5,29.04 46.77,32.48 40.28,34.68 Z" id="Combined-Shape"></path>
                </g>
            </g>
        </g>
    </g>
</svg>