<?xml version="1.0" encoding="UTF-8"?>
<svg width="35px" height="51px" viewBox="0 0 35 51" version="1.1" xmlns="http://www.w3.org/2000/svg" xmlns:xlink="http://www.w3.org/1999/xlink">
    <!-- Generator: Sketch 54 (76480) - https://sketchapp.com -->
    <title>Amazon-Redshift</title>
    <desc>Created with Sketch.</desc>
    <g id="AWS-Icons" stroke="none" stroke-width="1" fill="none" fill-rule="evenodd" opacity="0.800000012">
        <g id="Database/Amazon-Redshift" transform="translate(-20.000000, -12.000000)" fill="#3C5079" fill-rule="nonzero">
            <g id="Amazon-Redshift" transform="translate(20.000000, 12.000000)">
                <g id="Icon_Test">
                    <path d="M25.0566207,22.4113325 C24.1180342,21.7835592 23.5,20.7139544 23.5,19.5 C23.5,17.5670034 25.0670034,16 27,16 C28.9329966,16 30.5,17.5670034 30.5,19.5 L30.5,19.55 C30.4673328,21.4611629 28.9114351,22.9948335 27,23 C26.9914808,23 26.9829687,22.9999696 26.9744638,22.9999088 L25.2647488,27.3314028 C26.0204809,27.9734 26.5,28.9307012 26.5,30 C26.5,31.9329966 24.9329966,33.5 23,33.5 C21.2786729,33.5 19.8475727,32.2573908 19.5547927,30.6202656 L15.0560373,29.5973477 C14.4571747,30.6669766 13.3130229,31.39 12,31.39 C11.8697259,31.39 11.7411142,31.3828826 11.6145325,31.3690153 L10.2429673,34.5830505 C11.0112552,35.2250802 11.5,36.1904639 11.5,37.27 C11.5,38.1982577 11.1312511,39.0884964 10.4748737,39.7448737 C9.81849641,40.4012511 8.92825771,40.77 8,40.77 C6.06700338,40.77 4.5,39.2029966 4.5,37.27 C4.5,35.3370034 6.06700338,33.77 8,33.77 C8.13715784,33.77 8.27247299,33.7778895 8.40551639,33.7932394 L9.77254433,30.5898367 C8.99532924,29.947877 8.5,28.9767837 8.5,27.89 C8.5,25.9570034 10.0670034,24.39 12,24.39 C13.850747,24.39 15.3659844,25.8264875 15.4915812,27.6453316 L19.7821728,28.6209176 C20.3174352,27.373623 21.5566948,26.5 23,26.5 C23.1463788,26.5 23.2906589,26.508986 23.4323186,26.5264363 L25.0566207,22.4113325 Z M0.5,7.32 C0.5,2.9 9.26,0.5 17.5,0.5 C25.74,0.5 34.5,2.89 34.5,7.32 L34.5,43.68 C34.5,48.11 25.74,50.5 17.5,50.5 C9.26,50.5 0.5,48.11 0.5,43.68 L0.5,7.32 Z M2.5,10.6565074 L2.5,43.68 C2.5,45.68 8.21,48.5 17.5,48.5 C26.79,48.5 32.5,45.7 32.5,43.68 L32.5,10.6608964 C29.4413737,12.9344699 23.3400827,14.13 17.5,14.13 C11.6599173,14.13 5.55862632,12.9294466 2.5,10.6565074 Z M17.5,2.5 C8.21,2.5 2.5,5.3 2.5,7.32 C2.5,9.34 8.21,12.13 17.5,12.13 C26.79,12.13 32.5,9.33 32.5,7.32 C32.5,5.31 26.79,2.5 17.5,2.5 Z M8,35.77 C7.17157288,35.77 6.5,36.4415729 6.5,37.27 C6.5,38.0984271 7.17157288,38.77 8,38.77 C8.82842712,38.77 9.5,38.0984271 9.5,37.27 C9.5,36.4415729 8.82842712,35.77 8,35.77 Z M12,26.39 C11.1715729,26.39 10.5,27.0615729 10.5,27.89 C10.5,28.7184271 11.1715729,29.39 12,29.39 C12.8284271,29.39 13.5,28.7184271 13.5,27.89 C13.5,27.0615729 12.8284271,26.39 12,26.39 Z M23,28.5 C22.1715729,28.5 21.5,29.1715729 21.5,30 C21.5,30.8284271 22.1715729,31.5 23,31.5 C23.8284271,31.5 24.5,30.8284271 24.5,30 C24.5,29.1715729 23.8284271,28.5 23,28.5 Z M27,18 C26.1781838,18.0004567 25.5097485,18.662117 25.5009201,19.483886 C25.4920917,20.3056549 26.1461577,20.9815231 26.9677744,20.9996354 C27.7893912,21.0177478 28.472606,20.3713597 28.5,19.55 C28.5135548,19.1435846 28.3615239,18.749081 28.0787368,18.4568676 C27.7959497,18.1646543 27.4066413,17.999774 27,18 Z" id="Combined-Shape"></path>
                </g>
            </g>
        </g>
    </g>
</svg>