<?xml version="1.0" encoding="UTF-8"?>
<svg width="48px" height="27px" viewBox="0 0 48 27" version="1.1" xmlns="http://www.w3.org/2000/svg" xmlns:xlink="http://www.w3.org/1999/xlink">
    <!-- Generator: Sketch 54 (76480) - https://sketchapp.com -->
    <title>AWS-Identity-and-Access-Management-IAM_Role_light-bg</title>
    <desc>Created with Sketch.</desc>
    <g id="AWS-Icons" stroke="none" stroke-width="1" fill="none" fill-rule="evenodd" opacity="0.800000012">
        <g id="Security,-Identity,-&amp;-Compliance/AWS-Identity-and-Access-Management-IAM_Role_light-bg" fill="#3C5079" fill-rule="nonzero">
            <g id="AWS-Identity-and-Access-Management-IAM_Role_light-bg">
                <path d="M9.7,20.6138052 C11.3744996,21.6581768 13.3054694,22.2363989 15.2912265,22.2778823 C18.9065659,20.5498054 24.5960551,19.934808 27.87,20.16 C30.324658,20.5275005 32.7067605,21.2765469 34.93,22.38 C35.913876,22.8717807 36.941711,23.2701923 38,23.57 C39.6716225,23.6210137 41.3445248,23.5273312 43,23.29 L43.17,23.29 C43.76,23.23 44.34,23.17 44.9,23.13 L45.46,23.13 L45.46,19.52 L45.25,19.52 L43.45,19.69 L43.05,19.7252941 L43.05,19.85 C43.0500161,20.7905154 42.2904993,21.5544999 41.35,21.56 L37.35,21.56 C36.4095007,21.5544999 35.6499839,20.7905154 35.65,19.85 L35.65,19.5426757 C35.2766811,19.4103319 34.8761923,19.2573066 34.44,19.09 C32.0122868,17.9895535 29.375445,17.4267089 26.71,17.44 C21.85,17.73 19.49,18.01 17.71,18.52 L17.15,16.6 C19.15,16.04 21.57,15.74 26.6,15.45 C29.5481037,15.4104319 32.4693513,16.0144749 35.16,17.22 C35.3345503,17.2893067 35.5038294,17.355319 35.6671606,17.4175292 C35.7848358,16.593498 36.4934372,15.96 37.35,15.96 L38.3577289,15.96 C35.9554165,10.0345395 30.1344456,6.12482485 23.65,6.23 C20.7603362,6.22224711 17.9203629,6.98141371 15.42,8.43 C11.8300943,11.1574977 9.71547888,15.4015161 9.7,19.91 C9.7,20.0257543 9.7,20.3223961 9.7,20.6138052 Z M7.87347997,21.7519893 C7.09336144,22.151946 6.2667785,22.5213564 5.51,22.84 C4.53277481,23.2275944 3.58951674,23.6958786 2.69,24.24 C3.58602879,24.8672202 5.83008218,25.2367297 8.78072654,24.8353818 L8.78,24.83 C10.0324003,24.7117634 11.253882,24.3918204 12.3981004,23.8856504 C10.7731168,23.4758293 9.23516166,22.7537519 7.87347997,21.7519893 Z M40.4879673,15.96 L41.35,15.96 C42.2888841,15.96 43.05,16.7211159 43.05,17.66 L43.05,17.7188806 L43.28,17.7 L44.4076306,17.5916965 C43.382651,8.4134633 35.4478663,1.47199015 26.1086273,1.79231266 C21.5126454,1.94994825 17.3764874,3.83878952 14.3137016,6.81640889 L14.38,6.77 C17.2009766,5.11962608 20.4117291,4.25306814 23.68,4.26 C31.2338931,4.16619443 37.9744302,8.89574664 40.4879673,15.96 Z M6.94,19.9651059 C6.94,19.9070543 6.94,19.8487473 6.94,19.79 C6.96967025,9.13909961 15.4197209,0.420029155 26.0644632,0.0566814415 C36.419264,-0.296769406 45.2412856,7.37972337 46.4099645,17.5775519 C46.5897334,17.647825 46.7584183,17.7484391 46.9080642,17.8771346 C47.2931851,18.2083386 47.5132899,18.6920597 47.51,19.2 L47.51,23.29 C47.4961524,24.198023 46.7863188,24.9426952 45.88,25 L45.74,25 L45.12,25.05 L43.42,25.21 L43.24,25.21 C41.406461,25.479467 39.5510529,25.5698931 37.7,25.48 C36.4610114,25.1891631 35.2597298,24.7562991 34.12,24.19 C32.0931154,23.2054001 29.9284224,22.5344127 27.7,22.2 C24.3,21.94 17.82,22.71 14.94,24.8 C13.1712129,25.9159148 11.1692029,26.609092 9.0894525,26.8259444 L9.09,26.83 C8.19798419,26.9451029 7.29940943,27.0018902 6.4,27 C4.26,27 2.15,26.61 1.06,25.52 C0.639442832,25.1343838 0.440386311,24.5635047 0.53,24 C0.77,22.73 2.4,22 4.67,21 C5.47165187,20.6713227 6.22831853,20.3297926 6.94,19.9651059 Z M37.65,19.56 L41.05,19.56 L41.05,18 L37.65,18 L37.65,19.56 Z" id="Combined-Shape"></path>
            </g>
        </g>
    </g>
</svg>