<?xml version="1.0" encoding="UTF-8"?>
<svg width="51px" height="50px" viewBox="0 0 51 50" version="1.1" xmlns="http://www.w3.org/2000/svg" xmlns:xlink="http://www.w3.org/1999/xlink">
    <!-- Generator: Sketch 54 (76480) - https://sketchapp.com -->
    <title>AWS-Key-Management-Service</title>
    <desc>Created with Sketch.</desc>
    <g id="AWS-Icons" stroke="none" stroke-width="1" fill="none" fill-rule="evenodd" opacity="0.800000012">
        <g id="Security,-Identity,-&amp;-Compliance/AWS-Key-Management-Service" transform="translate(-12.000000, -12.000000)" fill="#3C5079" fill-rule="nonzero">
            <g id="AWS-Key-Management-Service" transform="translate(11.000000, 12.000000)">
                <g id="Icon_Test">
                    <path d="M13.5,50 C13.2127728,49.9996363 12.9395698,49.8757843 12.75,49.66 L9.25,45.66 C9.08922227,45.4776958 9.00034978,45.2430724 9,45 L9,42.42 L6.29,39.71 C6.10068735,39.5222334 5.99420168,39.2666375 5.99420168,39 C5.99420168,38.7333625 6.10068735,38.4777666 6.29,38.29 L9,35.59 L9,34.42 L6.29,31.71 C6.10068735,31.5222334 5.99420168,31.2666375 5.99420168,31 C5.99420168,30.7333625 6.10068735,30.4777666 6.29,30.29 L9,27.59 L9,25.17 C4.11542911,23.30133 0.919397553,18.5791934 1,13.35 C1.04142136,6.44644063 6.67144063,0.883578644 13.575,0.925 C20.4785594,0.966421356 26.0414214,6.59644063 26,13.5 C26.0192185,18.6726376 22.8330237,23.3165166 18,25.16 L18,46 C18.0000192,46.2923118 17.8721378,46.5699973 17.65,46.76 L14.15,49.76 C13.9688582,49.9149056 13.7383445,50.0000183 13.5,50 Z M11,44.62 L13.6,47.62 L16,45.54 L16,24.45 C15.9792341,23.9963999 16.2666908,23.5857475 16.7,23.45 C21.6166752,21.8669433 24.6492538,16.9403461 23.8480272,11.8376214 C23.0468007,6.73489669 18.6502457,2.97481723 13.485,2.97481723 C8.3197543,2.97481723 3.9231993,6.73489669 3.12197276,11.8376214 C2.32074622,16.9403461 5.35332484,21.8669433 10.27,23.45 C10.7152375,23.5745106 11.017082,23.9879962 11,24.45 L11,28 C11.0015368,28.265803 10.8971865,28.5212812 10.71,28.71 L8.42,31 L10.71,33.29 C10.8971865,33.4787188 11.0015368,33.734197 11,34 L11,36 C10.9988954,36.2623399 10.8947442,36.5137394 10.71,36.7 L8.42,39 L10.71,41.29 C10.8971865,41.4787188 11.0015368,41.734197 11,42 L11,44.62 Z M13.5,14.5 C11.0147186,14.5 9,12.4852814 9,10 C9,7.51471863 11.0147186,5.5 13.5,5.5 C15.9852814,5.5 18,7.51471863 18,10 C17.9945005,12.4829999 15.9829999,14.4945005 13.5,14.5 Z M13.5,7.5 C12.1192881,7.5 11,8.61928813 11,10 C11,11.3807119 12.1192881,12.5 13.5,12.5 C14.8807119,12.5 16,11.3807119 16,10 C16,8.61928813 14.8807119,7.5 13.5,7.5 Z M50.09,43 L20,43.0000282 L20,41 L50,41 L50,19 L28,19 L28,17 L50.09,17 C51.1316263,16.9943881 51.9835681,17.8284882 52,18.87 L52,41.13 C51.9835681,42.1715118 51.1316263,43.0056119 50.09,43 Z M23.5,33.5 C21.290861,33.5 19.5,31.709139 19.5,29.5 C19.5,27.290861 21.290861,25.5 23.5,25.5 C25.709139,25.5 27.5,27.290861 27.5,29.5 C27.5,31.709139 25.709139,33.5 23.5,33.5 Z M23.5,27.5 C22.3954305,27.5 21.5,28.3954305 21.5,29.5 C21.5,30.6045695 22.3954305,31.5 23.5,31.5 C24.6045695,31.5 25.5,30.6045695 25.5,29.5 C25.5,28.3954305 24.6045695,27.5 23.5,27.5 Z M33.5,33.5 C31.290861,33.5 29.5,31.709139 29.5,29.5 C29.5,27.290861 31.290861,25.5 33.5,25.5 C35.709139,25.5 37.5,27.290861 37.5,29.5 C37.5,31.709139 35.709139,33.5 33.5,33.5 Z M33.5,27.5 C32.3954305,27.5 31.5,28.3954305 31.5,29.5 C31.5,30.6045695 32.3954305,31.5 33.5,31.5 C34.6045695,31.5 35.5,30.6045695 35.5,29.5 C35.5,28.3954305 34.6045695,27.5 33.5,27.5 Z M20,36 L27,36 L27,38 L20,38 L20,36 Z M30,36 L37,36 L37,38 L30,38 L30,36 Z M40,36 L47,36 L47,38 L40,38 L40,36 Z" id="Combined-Shape"></path>
                </g>
            </g>
        </g>
    </g>
</svg>