<?xml version="1.0" encoding="UTF-8"?>
<svg width="51px" height="51px" viewBox="0 0 51 51" version="1.1" xmlns="http://www.w3.org/2000/svg" xmlns:xlink="http://www.w3.org/1999/xlink">
    <!-- Generator: Sketch 54 (76480) - https://sketchapp.com -->
    <title>Amazon-CloudFront</title>
    <desc>Created with Sketch.</desc>
    <g id="AWS-Icons" stroke="none" stroke-width="1" fill="none" fill-rule="evenodd" opacity="0.800000012">
        <g id="Networking-&amp;-Content-Delivery/Amazon-CloudFront" transform="translate(-12.000000, -12.000000)" fill="#3C5079" fill-rule="nonzero">
            <g id="Amazon-CloudFront" transform="translate(12.000000, 12.000000)">
                <g id="Icon_Test">
                    <path d="M34.14,48.67 L32.36,47.75 C33.3085466,45.9460707 34.0692085,44.0494424 34.63,42.09 L36.55,42.65 C35.9530374,44.7332508 35.145541,46.7503163 34.14,48.67 Z M36,30.36 C35.6540291,24.7605944 33.8361251,19.3517263 30.73,14.68 L32.4,13.59 C35.7010406,18.5496641 37.6329148,24.2935401 38,30.24 L36,30.36 Z M22.81,6.23 C21.3586523,5.14615851 19.8123696,4.1956298 18.19,3.39 L19.1,1.61 C20.8270424,2.45971366 22.4737425,3.46379906 24.02,4.61 L22.81,6.23 Z" id="Shape"></path>
                    <path d="M31,32.9 C27.8435799,29.7650059 24.02758,27.3736004 19.83,25.9 L20.45,24 C24.920557,25.5690956 28.9856024,28.1140189 32.35,31.45 L31,32.9 Z" id="Shape"></path>
                    <path d="M39.24,44.84 C38.87,43.84 38.45,42.92 37.99,41.99 L39.78,41.1 C40.2732477,42.0771176 40.7171395,43.0783773 41.11,44.1 L39.24,44.84 Z" id="Shape"></path>
                    <path d="M33.57,49.15 L32.93,47.26 C35.3256168,46.4526475 37.5672836,45.2455962 39.56,43.69 L40.79,45.27 C38.6197565,46.9618468 36.1785404,48.2737469 33.57,49.15 L33.57,49.15 Z" id="Shape"></path>
                    <path d="M1.78,25 L1.32,23.06 C3.53738356,22.5169384 5.80759899,22.2184906 8.09,22.17 L8.14,24.17 C5.99607479,24.2138962 3.86338674,24.4922187 1.78,25 L1.78,25 Z" id="Shape"></path>
                    <path d="M18.18,18.64 L16.5,17.55 C17.9679034,15.1659079 19.7771074,13.0096871 21.87,11.15 L23.19,12.66 C21.2356008,14.3966854 19.5475046,16.4116186 18.18,18.64 L18.18,18.64 Z" id="Shape"></path>
                    <path d="M33.05,6.78 L32.37,4.9 C33.8751649,4.33572082 35.4235604,3.89427762 37,3.58 L37.37,5.58 C35.8991158,5.85908763 34.4540978,6.26048151 33.05,6.78 L33.05,6.78 Z" id="Shape"></path>
                    <path d="M13.25,47 C11.6156476,43.206933 10.7424439,39.1297174 10.68,35 C10.7131016,33.4087023 10.9210168,31.8258641 11.3,30.28 C11.37,29.93 11.45,29.57 11.52,29.2 L13.52,29.59 C13.45,29.97 13.37,30.33 13.3,30.69 C12.9505809,32.101314 12.7560981,33.5465221 12.72,35 C12.7653426,38.8797592 13.5740528,42.7126379 15.1,46.28 L13.25,47 Z" id="Shape"></path>
                    <path d="M25.5,50.5 C11.6928813,50.5 0.5,39.3071187 0.5,25.5 C0.5,24.99 0.5,24.5 0.55,23.99 C1.18309854,13.5090995 8.29789766,4.54069748 18.36,1.54 C24.8399371,-0.387270147 31.8241675,0.391962178 37.72,3.7 C45.0362565,7.80226968 49.8077062,15.3001625 50.4253309,23.6652546 C51.0429555,32.0303466 47.4244352,40.1477009 40.79,45.28 C36.4043639,48.6509376 31.031438,50.4852524 25.5,50.5 L25.5,50.5 Z M25.5,2.5 C23.2726426,2.50717464 21.0586265,2.84416339 18.93,3.5 C9.68277977,6.25942479 3.14145004,14.497986 2.55,24.13 C2.55,24.6 2.5,25.05 2.5,25.5 C2.5,38.2025492 12.7974508,48.5 25.5,48.5 C28.0252246,48.5039231 30.5332664,48.0847894 32.92,47.26 C35.3197452,46.4551029 37.5651,45.2478866 39.56,43.69 C47.3368522,37.6721794 50.4277728,27.3760644 47.2511926,18.0699947 C44.0746123,8.76392506 35.3332878,2.50668763 25.5,2.5 Z" id="Shape"></path>
                    <path d="M27.93,13.93 C26.1373232,13.9299954 24.5213554,12.8495754 23.8362657,11.1929698 C23.1511759,9.53636424 23.5320243,7.63016019 24.8010698,6.36397943 C26.0701152,5.09779867 27.977175,4.721259 29.6322282,5.41009075 C31.2872813,6.0989225 32.3640467,7.71732779 32.36,9.51 C32.360003,10.6839916 31.8929533,11.809754 31.0618784,12.6389528 C30.2308036,13.4681517 29.1039885,13.9326561 27.93,13.93 L27.93,13.93 Z M27.93,7.08 C26.5879481,7.08 25.5,8.16794806 25.5,9.51 C25.5,10.8520519 26.5879481,11.94 27.93,11.94 C29.2720519,11.94 30.36,10.8520519 30.36,9.51 C30.36,8.16794806 29.2720519,7.08 27.93,7.08 L27.93,7.08 Z" id="Shape"></path>
                    <path d="M14.29,27.88 C11.8433786,27.88 9.86,25.8966214 9.86,23.45 C9.86,21.0033786 11.8433786,19.02 14.29,19.02 C16.7366214,19.02 18.72,21.0033786 18.72,23.45 C18.7145009,25.89434 16.73434,27.8745009 14.29,27.88 Z M14.29,21.02 C12.9479481,21.02 11.86,22.1079481 11.86,23.45 C11.86,24.7920519 12.9479481,25.88 14.29,25.88 C15.6320519,25.88 16.72,24.7920519 16.72,23.45 C16.725333,22.8020656 16.4716721,22.1788352 16.0153794,21.718787 C15.5590867,21.2587388 14.9379563,20.9999781 14.29,21 L14.29,21.02 Z" id="Shape"></path>
                    <path d="M36.28,40.7 C34.4864187,40.7040442 32.8673821,39.6261944 32.1791388,37.969912 C31.4908955,36.3136296 31.8692715,34.405785 33.1375282,33.1375282 C34.405785,31.8692715 36.3136296,31.4908955 37.969912,32.1791388 C39.6261944,32.8673821 40.7040442,34.4864187 40.7,36.28 C40.7,38.7210986 38.7210986,40.7 36.28,40.7 Z M36.28,33.85 C35.2962569,33.8459516 34.4071262,34.4354285 34.0278555,35.3431293 C33.6485849,36.25083 33.8540098,37.2976523 34.5481914,37.9947024 C35.242373,38.6917526 36.2883392,38.9014925 37.1975963,38.5259681 C38.1068533,38.1504437 38.6999917,37.2637515 38.7,36.28 C38.7000113,34.9418436 37.618145,33.8555068 36.28,33.85 L36.28,33.85 Z" id="Shape"></path>
                </g>
            </g>
        </g>
    </g>
</svg>