<?xml version="1.0" encoding="UTF-8"?>
<svg width="48px" height="48px" viewBox="0 0 48 48" version="1.1" xmlns="http://www.w3.org/2000/svg" xmlns:xlink="http://www.w3.org/1999/xlink">
    <!-- Generator: Sketch 54 (76480) - https://sketchapp.com -->
    <title>Amazon-VPC_Customer-Gateway_light-bg</title>
    <desc>Created with Sketch.</desc>
    <g id="AWS-Icons" stroke="none" stroke-width="1" fill="none" fill-rule="evenodd" opacity="0.800000012">
        <g id="Networking-&amp;-Content-Delivery/Amazon-VPC_Customer-Gateway_light-bg" fill="#3C5079" fill-rule="nonzero">
            <g id="Amazon-VPC_Customer-Gateway_light-bg">
                <path d="M7.65,23 L23,23 L23,7.64 L20,10.64 L18.59,9.23 L23.27,4.54 C23.4577666,4.35068735 23.7133625,4.24420168 23.98,4.24420168 C24.2466375,4.24420168 24.5022334,4.35068735 24.69,4.54 L29.37,9.23 L28,10.64 L25,7.64 L25,23 L40.36,23 L37.36,20 L38.77,18.59 L43.46,23.27 C43.6493127,23.4577666 43.7557983,23.7133625 43.7557983,23.98 C43.7557983,24.2466375 43.6493127,24.5022334 43.46,24.69 L38.77,29.39 L37.36,28 L40.36,25 L25,25 L25,40.36 L28,37.36 L29.41,38.77 L24.73,43.46 C24.5364069,43.6521891 24.2727025,43.7569484 24,43.75 C23.734197,43.7515368 23.4787188,43.6471865 23.29,43.46 L18.61,38.77 L20,37.36 L23,40.36 L23,25 L7.65,25 L10.65,28 L9.23,29.39 L4.54,24.71 C4.35068735,24.5222334 4.24420168,24.2666375 4.24420168,24 C4.24420168,23.7333625 4.35068735,23.4777666 4.54,23.29 L9.23,18.61 L10.65,20 L7.65,23 Z M24,47.5 C11.0213084,47.5 0.5,36.9786916 0.5,24 C0.5,11.0213084 11.0213084,0.5 24,0.5 C36.9786916,0.5 47.5,11.0213084 47.5,24 C47.4889723,36.974121 36.974121,47.4889723 24,47.5 Z M24,2.5 C12.1258779,2.5 2.5,12.1258779 2.5,24 C2.5,35.8741221 12.1258779,45.5 24,45.5 C35.8741221,45.5 45.5,35.8741221 45.5,24 C45.4889739,12.130448 35.869552,2.51102607 24,2.5 Z" id="Combined-Shape"></path>
            </g>
        </g>
    </g>
</svg>