<?xml version="1.0" encoding="UTF-8"?>
<svg width="42px" height="18px" viewBox="0 0 42 18" version="1.1" xmlns="http://www.w3.org/2000/svg" xmlns:xlink="http://www.w3.org/1999/xlink">
    <!-- Generator: Sketch 54 (76480) - https://sketchapp.com -->
    <title>Compute/Amazon-EC2_Elastic-IP-Address_light-bg</title>
    <desc>Created with Sketch.</desc>
    <g id="Compute/Amazon-EC2_Elastic-IP-Address_light-bg" stroke="none" stroke-width="1" fill="none" fill-rule="evenodd" opacity="0.800000012">
        <g id="Amazon-EC2_Elastic-IP-Address_light-bg" fill="#3C5079" fill-rule="nonzero">
            <path d="M17.0217969,8 L38.6314286,8 L34.1,3.12 L35.56,1.76 L41.65,8.32 C42.0057172,8.70355316 42.0057172,9.29644684 41.65,9.68 L35.56,16.24 L34.1,14.88 L38.6314286,10 L17.0206783,10 C16.5215325,14.2207273 12.9338134,17.4948869 8.58,17.5 C3.88557963,17.5 0.08,13.6944204 0.08,9 C0.08,4.30557963 3.88557963,0.5 8.58,0.5 C12.9361068,0.5 16.5268689,3.77682987 17.0217969,8 Z M39.52,9.04307692 L39.56,9 L39.52,8.95692308 L39.52,9.04307692 Z M8.58,2.5 C4.99014913,2.5 2.08,5.41014913 2.08,9 C2.08,12.5898509 4.99014913,15.5 8.58,15.5 C12.1698509,15.5 15.08,12.5898509 15.08,9 C15.0744934,5.41243253 12.1675675,2.50550664 8.58,2.5 Z" id="Combined-Shape"></path>
        </g>
    </g>
</svg>