<?xml version="1.0" encoding="UTF-8"?>
<svg width="48px" height="48px" viewBox="0 0 48 48" version="1.1" xmlns="http://www.w3.org/2000/svg" xmlns:xlink="http://www.w3.org/1999/xlink">
    <!-- Generator: Sketch 54 (76480) - https://sketchapp.com -->
    <title>Amazon-VPC_Internet-Gateway_light-bg</title>
    <desc>Created with Sketch.</desc>
    <g id="AWS-Icons" stroke="none" stroke-width="1" fill="none" fill-rule="evenodd" opacity="0.800000012">
        <g id="Networking-&amp;-Content-Delivery/Amazon-VPC_Internet-Gateway_light-bg" fill="#3C5079" fill-rule="nonzero">
            <g id="Amazon-VPC_Internet-Gateway_light-bg">
                <path d="M24,47.5 C11.0213084,47.5 0.5,36.9786916 0.5,24 C0.5,11.0213084 11.0213084,0.5 24,0.5 C36.9786916,0.5 47.5,11.0213084 47.5,24 C47.4889723,36.974121 36.974121,47.4889723 24,47.5 Z M24,2.5 C12.1258779,2.5 2.5,12.1258779 2.5,24 C2.5,35.8741221 12.1258779,45.5 24,45.5 C35.8741221,45.5 45.5,35.8741221 45.5,24 C45.4889739,12.130448 35.869552,2.51102607 24,2.5 Z M35.25,38.12 L31.49,38.12 C30.9377153,38.12 30.49,37.6722847 30.49,37.12 L30.49,17.72 C28.554085,16.7244809 26.4164379,16.1840837 24.24,16.14 C21.8710873,16.1844899 19.5481973,16.8020972 17.47,17.94 L17.47,37.12 C17.47,37.6722847 17.0222847,38.12 16.47,38.12 L12.75,38.12 C12.1977153,38.12 11.75,37.6722847 11.75,37.12 L11.75,15.3 C11.7503637,15.0127728 11.8742157,14.7395698 12.09,14.55 C15.5136817,11.7495636 19.8282429,10.2699814 24.25,10.38 C28.4258153,10.305934 32.5096958,11.6098236 35.87,14.09 C36.111492,14.2808221 36.251658,14.5722197 36.25,14.88 L36.25,37.12 C36.25,37.6722847 35.8022847,38.12 35.25,38.12 Z M32.49,36.12 L34.25,36.12 L34.25,15.37 C31.3085827,13.3568539 27.8138325,12.3084288 24.25,12.37 C20.4685385,12.2772616 16.7672545,13.4687226 13.75,15.75 L13.75,36.12 L15.47,36.12 L15.47,17.32 C15.4673543,16.9398431 15.6804962,16.5910655 16.02,16.42 C18.5307871,14.9955304 21.3541857,14.212398 24.24,14.14 C26.8839497,14.212952 29.4750404,14.8975202 31.81,16.14 L31.91,16.14 C32.2644542,16.3040391 32.4909665,16.659429 32.49,17.05 L32.49,36.12 Z" id="Combined-Shape"></path>
            </g>
        </g>
    </g>
</svg>