<?xml version="1.0" encoding="UTF-8"?>
<svg width="48px" height="48px" viewBox="0 0 48 48" version="1.1" xmlns="http://www.w3.org/2000/svg" xmlns:xlink="http://www.w3.org/1999/xlink">
    <!-- Generator: Sketch 54 (76480) - https://sketchapp.com -->
    <title>Amazon-VPC_Network-Access-Control-List_light-bg</title>
    <desc>Created with Sketch.</desc>
    <g id="AWS-Icons" stroke="none" stroke-width="1" fill="none" fill-rule="evenodd" opacity="0.800000012">
        <g id="Networking-&amp;-Content-Delivery/Amazon-VPC_Network-Access-Control-List_light-bg" fill="#3C5079" fill-rule="nonzero">
            <g id="Amazon-VPC_Network-Access-Control-List_light-bg">
                <path d="M20.19,20.19 L20.19,18.69 C20.0882314,16.4837683 21.793805,14.6125615 24,14.51 C25.0544544,14.5218448 26.0513279,14.9928949 26.73,15.8 C27.4264778,16.6160853 27.8031261,17.6571979 27.79,18.73 L27.8018699,20.19 L29.63,20.19 C30.1822847,20.19 30.63,20.6377153 30.63,21.19 L30.63,30.56 C30.63,31.1122847 30.1822847,31.56 29.63,31.56 L29.62,31.56 L18.37,31.56 C17.8177153,31.56 17.37,31.1122847 17.37,30.56 L17.37,21.19 C17.37,20.6377153 17.8177153,20.19 18.37,20.19 L20.19,20.19 Z M22.19,20.19 L25.81,20.19 L25.81,18.72 C25.8192639,18.1323364 25.616963,17.5609249 25.24,17.11 C24.9353525,16.7424356 24.4872028,16.523826 24.01,16.51 C23.4768079,16.5555529 22.98411,16.8128822 22.6420801,17.2244456 C22.3000503,17.636009 22.1372199,18.1674748 22.19,18.7 L22.19,20.19 Z M19.38,29.56 L28.62,29.56 L28.62,22.19 L19.38,22.19 L19.38,29.56 Z M24,47.5 C11.0213084,47.5 0.5,36.9786916 0.5,24 C0.5,11.0213084 11.0213084,0.5 24,0.5 C36.9786916,0.5 47.5,11.0213084 47.5,24 C47.4889723,36.974121 36.974121,47.4889723 24,47.5 Z M24,2.5 C12.1258779,2.5 2.5,12.1258779 2.5,24 C2.5,35.8741221 12.1258779,45.5 24,45.5 C35.8741221,45.5 45.5,35.8741221 45.5,24 C45.4889739,12.130448 35.869552,2.51102607 24,2.5 Z M6.19,28.88 C6.04076053,28.8812751 5.89336236,28.8469965 5.76,28.78 C5.41271622,28.6145973 5.1910889,28.2646594 5.19,27.88 L5.19,20.12 C5.1910889,19.7353406 5.41271622,19.3854027 5.76,19.22 C6.11149847,19.0509569 6.52920599,19.1017064 6.83,19.35 L11.48,23.23 C11.7092703,23.4199799 11.8419561,23.7022463 11.8419561,24 C11.8419561,24.2977537 11.7092703,24.5800201 11.48,24.77 L6.83,28.65 C6.65008794,28.7990812 6.42365216,28.8804565 6.19,28.88 Z M7.19,22.26 L7.19,25.74 L9.28,24 L7.19,22.26 Z M41.81,28.88 C41.5763478,28.8804565 41.3499121,28.7990812 41.17,28.65 L36.52,24.77 C36.2907297,24.5800201 36.1580439,24.2977537 36.1580439,24 C36.1580439,23.7022463 36.2907297,23.4199799 36.52,23.23 L41.17,19.35 C41.470794,19.1017064 41.8885015,19.0509569 42.24,19.22 C42.5872838,19.3854027 42.8089111,19.7353406 42.81,20.12 L42.81,27.88 C42.8089111,28.2646594 42.5872838,28.6145973 42.24,28.78 C42.1066376,28.8469965 41.9592395,28.8812751 41.81,28.88 Z M38.72,24 L40.81,25.74 L40.81,22.26 L38.72,24 Z M12.69,11.81 L14.69,11.81 L14.69,36.19 L12.69,36.19 L12.69,11.81 Z M33.31,11.81 L35.31,11.81 L35.31,36.19 L33.31,36.19 L33.31,11.81 Z" id="Combined-Shape" opacity="0.900000036"></path>
            </g>
        </g>
    </g>
</svg>