<?xml version="1.0" encoding="UTF-8"?>
<svg width="48px" height="48px" viewBox="0 0 48 48" version="1.1" xmlns="http://www.w3.org/2000/svg" xmlns:xlink="http://www.w3.org/1999/xlink">
    <!-- Generator: Sketch 54 (76480) - https://sketchapp.com -->
    <title>Amazon-VPC_Peering_light-bg</title>
    <desc>Created with Sketch.</desc>
    <g id="AWS-Icons" stroke="none" stroke-width="1" fill="none" fill-rule="evenodd" opacity="0.800000012">
        <g id="Networking-&amp;-Content-Delivery/Amazon-VPC_Peering_light-bg" fill="#3C5079" fill-rule="nonzero">
            <g id="Amazon-VPC_Peering_light-bg">
                <path d="M7.79,23 L13.27,23 L13.27,25 L7.80265823,25 L10.79,27.95 L9.33,29.36 L4.67,24.71 C4.48068735,24.5222334 4.37420168,24.2666375 4.37420168,24 C4.37420168,23.7333625 4.48068735,23.4777666 4.67,23.29 L9.33,18.64 L10.74,20.05 L7.79,23 Z M40.2979747,25 L34.7,25 L34.7,23 L40.1967089,23 L37.26,20.1 L38.67,18.69 L43.33,23.34 C43.5193127,23.5277666 43.6257983,23.7833625 43.6257983,24.05 C43.6257983,24.3166375 43.5193127,24.5722334 43.33,24.76 L38.67,29.36 L37.26,28 L40.2979747,25 Z M25,40.2473418 L27.95,37.26 L29.36,38.67 L24.71,43.33 C24.5212812,43.5171865 24.265803,43.6215368 24,43.62 C23.734197,43.6215368 23.4787188,43.5171865 23.29,43.33 L18.64,38.67 L20.05,37.26 L23,40.2473418 L23,31.47 L25,31.47 L25,40.2473418 Z M25,7.7775 L25,15.72 L23,15.72 L23,7.80265823 L20.05,10.79 L18.64,9.38 L23.29,4.72 C23.4777666,4.53068735 23.7333625,4.42420168 24,4.42420168 C24.2666375,4.42420168 24.5222334,4.53068735 24.71,4.72 L29.36,9.38 L28,10.74 L25,7.7775 Z M24,47.5 C11.0213084,47.5 0.5,36.9786916 0.5,24 C0.5,11.0213084 11.0213084,0.5 24,0.5 C36.9786916,0.5 47.5,11.0213084 47.5,24 C47.4889723,36.974121 36.974121,47.4889723 24,47.5 Z M24,2.5 C12.1258779,2.5 2.5,12.1258779 2.5,24 C2.5,35.8741221 12.1258779,45.5 24,45.5 C35.8741221,45.5 45.5,35.8741221 45.5,24 C45.4889739,12.130448 35.869552,2.51102607 24,2.5 Z M29.28,29.66 L19.11,29.66 C16.9702402,29.6941034 15.1437135,28.1211416 14.86,26 C14.86,25.91 14.86,25.83 14.86,25.74 C14.8019592,24.2158425 15.6826693,22.8114669 17.08,22.2 C17.2049104,20.2626484 18.3733154,18.5464339 20.13,17.72 C22.0919932,16.8648961 24.3785261,17.3150324 25.87,18.85 C26.1854697,19.146431 26.461108,19.4825752 26.69,19.85 C27.4676434,19.5573696 28.3355759,19.6292711 29.0544644,20.0458777 C29.773353,20.4624842 30.2672636,21.179791 30.4,22 C32.0618828,22.4554795 33.1974653,23.9874835 33.15,25.71 C33.2194494,26.7500061 32.8421789,27.7702876 32.1128225,28.5149184 C31.3834661,29.2595493 30.3712219,29.6578823 29.33,29.61 L29.28,29.66 Z M22.2,19.29 C21.749595,19.2907513 21.3039949,19.3825926 20.89,19.56 C19.8080389,20.0921832 19.105301,21.1750906 19.06,22.38 C19.06,22.51 19.06,22.64 19.06,22.77 C19.1213469,23.2674393 18.8049697,23.7334545 18.32,23.86 C17.4137475,24.0029665 16.7669585,24.8147084 16.83,25.73 L16.83,25.88 C17.0443965,26.9433539 17.9958473,27.6960571 19.08,27.66 L29.17,27.66 C31.17,27.66 31.17,26.22 31.17,25.75 C31.17,25.28 31.17,24.19 29.32,23.81 C28.8756107,23.7201448 28.5472773,23.3425613 28.52,22.89 C28.52,22.15 28.16,21.68 27.7,21.68 C27.4696525,21.6900051 27.2563014,21.8040377 27.12,21.99 C26.8994981,22.2837098 26.5357388,22.4329137 26.1725025,22.378637 C25.8092662,22.3243604 25.505012,22.0753383 25.38,21.73 C25.1903915,21.1804183 24.883262,20.6787734 24.48,20.26 C23.8754461,19.6519009 23.0573668,19.3038584 22.2,19.29 Z" id="Combined-Shape"></path>
            </g>
        </g>
    </g>
</svg>