<?xml version="1.0" encoding="UTF-8"?>
<svg width="48px" height="46px" viewBox="0 0 48 46" version="1.1" xmlns="http://www.w3.org/2000/svg" xmlns:xlink="http://www.w3.org/1999/xlink">
    <!-- Generator: Sketch 54 (76480) - https://sketchapp.com -->
    <title>Amazon-Route-53_Route-Table_light-bg</title>
    <desc>Created with Sketch.</desc>
    <g id="AWS-Icons" stroke="none" stroke-width="1" fill="none" fill-rule="evenodd" opacity="0.800000012">
        <g id="Networking-&amp;-Content-Delivery/Amazon-Route-53_Route-Table_light-bg" fill="#3C5079" fill-rule="nonzero">
            <g id="Amazon-Route-53_Route-Table_light-bg">
                <path d="M5.8,10.57 L5.8,5 L4.31,5.7 L4.31,5 L5.88,4.11 L6.74,4.11 L6.74,10.61 L5.8,10.57 Z M9.47,10.57 L11.58,4.85 L8.72,4.85 L8.72,4.07 L12.53,4.07 L12.53,4.77 L10.45,10.57 L9.47,10.57 Z M13.85,4.56 C14.1156955,4.3645495 14.4088773,4.20953386 14.72,4.1 C14.9987102,4.01710395 15.289705,3.98326735 15.58,4 C16.0249338,3.97138446 16.4599954,4.13955955 16.77,4.46 C17.076256,4.80945758 17.2309578,5.26636765 17.2,5.73 C17.1952845,6.03521621 17.1342618,6.33693922 17.02,6.62 C16.8415861,7.02260333 16.6203088,7.4048095 16.36,7.76 C16.04,8.21 15.5,8.91 14.73,9.84 L17.44,9.84 L17.44,10.62 L13.7,10.62 L13.7,9.92 C14.37,9.09 14.88,8.43 15.24,7.92 C15.5325219,7.5249206 15.7869901,7.10303901 16,6.66 C16.1486869,6.3723826 16.2274843,6.05376727 16.23,5.73 C16.23,5.08 15.96,4.73 15.43,4.73 C14.8618681,4.78362014 14.3190892,4.99105157 13.86,5.33 L13.85,4.56 Z M19.07,10.66 C18.9105824,10.6692536 18.7545935,10.6112112 18.64,10.5 C18.5246187,10.3833509 18.463022,10.2239242 18.47,10.06 C18.4643528,9.89920532 18.5257516,9.7432898 18.6395207,9.6295207 C18.7532898,9.51575159 18.9092053,9.4543528 19.07,9.46 C19.231129,9.45208481 19.3878442,9.51404199 19.5,9.63 C19.6138207,9.74357267 19.6753868,9.8992988 19.67,10.06 C19.676978,10.2239242 19.6153813,10.3833509 19.5,10.5 C19.3860948,10.6122962 19.229606,10.6705246 19.07,10.66 Z M22.57,10.57 L22.57,5 L21.08,5.7 L21.08,5 L22.65,4.11 L23.51,4.11 L23.51,10.61 L22.57,10.57 Z M27.91,4.69 C27.4836212,4.66924524 27.0802971,4.88435144 26.86,5.25 C26.5861917,5.79207216 26.4488821,6.39280184 26.46,7 C26.8538525,6.75626268 27.3068541,6.62485762 27.77,6.62 C28.245315,6.60252938 28.7010798,6.81003207 29,7.18 C29.3235139,7.56853523 29.4878709,8.06517916 29.46,8.57 C29.4871493,9.13359137 29.3015527,9.6868119 28.94,10.12 C28.5795871,10.5062348 28.0677,10.714646 27.54,10.69 C26.9237202,10.738133 26.3312615,10.4419036 26,9.92 C25.6177198,9.18411488 25.44477,8.35741445 25.5,7.53 C25.4439885,6.60758759 25.6521235,5.68832458 26.1,4.88 C26.4604446,4.30014499 27.1082596,3.96282121 27.79,4 C28.0229046,4.00033503 28.2548018,4.03058248 28.48,4.09 C28.6891198,4.13554941 28.891002,4.2095729 29.08,4.31 L29.08,5 C28.8970128,4.9173016 28.7060088,4.85363361 28.51,4.81 C28.3142045,4.75127756 28.1133199,4.71110063 27.91,4.69 Z M27.51,7.37 C27.1403478,7.37536996 26.7771771,7.4678757 26.45,7.64 L26.45,7.71 C26.4178986,8.28856253 26.5064389,8.86747996 26.71,9.41 C26.8531271,9.74492406 27.1858827,9.9588384 27.55,9.95 C28.18,9.95 28.49,9.51 28.49,8.63 C28.5150494,8.30057164 28.4268491,7.97246641 28.24,7.7 C28.0670111,7.47503643 27.7931641,7.35124258 27.51,7.37 Z M31,10.66 C30.8405824,10.6692536 30.6845935,10.6112112 30.57,10.5 C30.4546187,10.3833509 30.393022,10.2239242 30.4,10.06 C30.4,9.72862915 30.6686292,9.46 31,9.46 C31.3313708,9.46 31.6,9.72862915 31.6,10.06 C31.606978,10.2239242 31.5453813,10.3833509 31.43,10.5 C31.3154065,10.6112112 31.1594176,10.6692536 31,10.66 Z M34.55,10.69 C33.9112734,10.723818 33.3093408,10.3898424 33,9.83 C32.6017197,9.05590193 32.418676,8.18903445 32.47,7.32 C32.418676,6.45096555 32.6017197,5.58409807 33,4.81 C33.3259348,4.27287267 33.9229356,3.96089163 34.55,4 C35.1781326,3.97779043 35.765539,4.31013878 36.07,4.86 C36.4682803,5.63409807 36.651324,6.50096555 36.6,7.37 C36.651324,8.23903445 36.4682803,9.10590193 36.07,9.88 C35.75563,10.4140011 35.1685696,10.7268425 34.55,10.69 Z M34.55,9.93 C34.9303681,9.92741756 35.2638571,9.67526736 35.37,9.31 C35.5824405,8.66579147 35.6706688,7.98711274 35.63,7.31 C35.6697028,6.63292108 35.581498,5.95442282 35.37,5.31 C35.2622908,4.9440913 34.9264321,4.69284769 34.545,4.69284769 C34.1635679,4.69284769 33.8277092,4.9440913 33.72,5.31 C33.5134416,5.95553436 33.4253568,6.63310944 33.46,7.31 C33.4244675,7.98692504 33.512573,8.6646597 33.72,9.31 C33.82718,9.67882011 34.1659266,9.93185972 34.55,9.93 Z M38.09,10.66 C37.9305824,10.6692536 37.7745935,10.6112112 37.66,10.5 C37.5446187,10.3833509 37.483022,10.2239242 37.49,10.06 C37.49,9.72862915 37.7586292,9.46 38.09,9.46 C38.4213708,9.46 38.69,9.72862915 38.69,10.06 C38.696978,10.2239242 38.6353813,10.3833509 38.52,10.5 C38.4054065,10.6112112 38.2494176,10.6692536 38.09,10.66 Z M41.64,10.69 C41.008329,10.7160468 40.4161029,10.3831616 40.11,9.83 C39.7117197,9.05590193 39.528676,8.18903445 39.58,7.32 C39.528676,6.45096555 39.7117197,5.58409807 40.11,4.81 C40.4324923,4.27945277 41.0199301,3.96845629 41.64,4 C42.2681326,3.97779043 42.855539,4.31013878 43.16,4.86 C43.5582803,5.63409807 43.741324,6.50096555 43.69,7.37 C43.741324,8.23903445 43.5582803,9.10590193 43.16,9.88 C42.84563,10.4140011 42.2585696,10.7268425 41.64,10.69 Z M41.64,9.93 C42.0203681,9.92741756 42.3538571,9.67526736 42.46,9.31 C42.6724405,8.66579147 42.7606688,7.98711274 42.72,7.31 C42.7597028,6.63292108 42.671498,5.95442282 42.46,5.31 C42.3522908,4.9440913 42.0164321,4.69284769 41.635,4.69284769 C41.2535679,4.69284769 40.9177092,4.9440913 40.81,5.31 C40.6034416,5.95553436 40.5153568,6.63310944 40.55,7.31 C40.5144675,7.98692504 40.602573,8.6646597 40.81,9.31 C40.91718,9.67882011 41.2559266,9.93185972 41.64,9.93 Z M5.8,25.93 L5.8,20.39 L4.31,21.1 L4.31,20.33 L5.88,19.44 L6.74,19.44 L6.74,25.93 L5.8,25.93 Z M9.47,25.93 L11.58,20.22 L8.72,20.22 L8.72,19.44 L12.53,19.44 L12.53,20.13 L10.45,25.93 L9.47,25.93 Z M13.85,19.92 C14.118097,19.7284067 14.4107129,19.5736903 14.72,19.46 C14.9962616,19.3633522 15.2873484,19.315966 15.58,19.32 C16.0227861,19.2927952 16.4560071,19.4566183 16.77,19.77 C17.0654135,20.1098899 17.2193036,20.5500871 17.2,21 C17.1962154,21.305316 17.1351584,21.6072091 17.02,21.89 C16.8460357,22.2948532 16.6244755,22.677548 16.36,23.03 C16.04,23.48 15.5,24.18 14.73,25.12 L17.44,25.12 L17.44,25.89 L13.7,25.89 L13.7,25.19 C14.37,24.36 14.88,23.7 15.24,23.19 C15.5287892,22.8171259 15.7831645,22.4188277 16,22 C16.1493135,21.7162069 16.2281975,21.4006709 16.23,21.08 C16.23,20.43 15.96,20.08 15.43,20.08 C14.8618681,20.1336201 14.3190892,20.3410516 13.86,20.68 L13.85,19.92 Z M19.07,26 C18.9092053,26.0056472 18.7532898,25.9442484 18.6395207,25.8304793 C18.5257516,25.7167102 18.4643528,25.5607947 18.47,25.4 C18.4642205,25.2362752 18.5256399,25.0773072 18.64,24.96 C18.7545935,24.8487888 18.9105824,24.7907464 19.07,24.8 C19.229606,24.7894754 19.3860948,24.8477038 19.5,24.96 C19.6143601,25.0773072 19.6757795,25.2362752 19.67,25.4 C19.6753868,25.5607012 19.6138207,25.7164273 19.5,25.83 C19.3878442,25.945958 19.231129,26.0079152 19.07,26 Z M22.57,25.93 L22.57,20.39 L21.08,21.1 L21.08,20.33 L22.65,19.44 L23.51,19.44 L23.51,25.93 L22.57,25.93 Z M27.91,20.06 C27.4851976,20.0349443 27.0812829,20.2465186 26.86,20.61 C26.5841012,21.1620484 26.4468114,21.7729881 26.46,22.39 C26.8526156,22.1422745 27.3058224,22.0073504 27.77,22 C28.2319291,21.9775334 28.6783956,22.1694033 28.98,22.52 C29.305935,22.9111083 29.4704463,23.4117949 29.44,23.92 C29.4675809,24.4806117 29.2817823,25.0308615 28.92,25.46 C28.5630426,25.852245 28.0497691,26.0648869 27.52,26.04 C26.9122396,26.0848816 26.328751,25.7931373 26,25.28 C25.6175662,24.5477681 25.4445527,23.7242237 25.5,22.9 C25.442622,21.9742887 25.650783,21.0514418 26.1,20.24 C26.4469214,19.6464003 27.0930037,19.2925933 27.78,19.32 C28.0124795,19.3169576 28.244384,19.3438451 28.47,19.4 C28.6777662,19.4501102 28.8790865,19.5239277 29.07,19.62 L29.07,20.31 C28.8883196,20.226284 28.6968095,20.1658072 28.5,20.13 C28.3066852,20.0840242 28.1087061,20.0605351 27.91,20.06 Z M27.51,22.74 C27.1416997,22.746542 26.7795257,22.8353771 26.45,23 L26.45,23.08 C26.41877,23.6585202 26.5072831,24.2372599 26.71,24.78 C26.8531271,25.1149241 27.1858827,25.3288384 27.55,25.32 C28.18,25.32 28.49,24.88 28.49,23.99 C28.5119052,23.6608735 28.4239773,23.3337817 28.24,23.06 C28.0627126,22.8415853 27.790758,22.7223723 27.51,22.74 Z M31,26 C30.8392053,26.0056472 30.6832898,25.9442484 30.5695207,25.8304793 C30.4557516,25.7167102 30.3943528,25.5607947 30.4,25.4 C30.3942205,25.2362752 30.4556399,25.0773072 30.57,24.96 C30.817323,24.7475993 31.182677,24.7475993 31.43,24.96 C31.5443601,25.0773072 31.6057795,25.2362752 31.6,25.4 C31.6056472,25.5607947 31.5442484,25.7167102 31.4304793,25.8304793 C31.3167102,25.9442484 31.1607947,26.0056472 31,26 Z M34.5,25.93 L34.5,20.39 L33,21.1 L33,20.33 L34.57,19.44 L35.43,19.44 L35.43,25.93 L34.5,25.93 Z M38.09,26 C37.9292053,26.0056472 37.7732898,25.9442484 37.6595207,25.8304793 C37.5457516,25.7167102 37.4843528,25.5607947 37.49,25.4 C37.4842205,25.2362752 37.5456399,25.0773072 37.66,24.96 C37.907323,24.7475993 38.272677,24.7475993 38.52,24.96 C38.6343601,25.0773072 38.6957795,25.2362752 38.69,25.4 C38.6956472,25.5607947 38.6342484,25.7167102 38.5204793,25.8304793 C38.4067102,25.9442484 38.2507947,26.0056472 38.09,26 Z M41.64,26.06 C41.0067432,26.0817323 40.4151272,25.7453232 40.11,25.19 C39.7117197,24.4159019 39.528676,23.5490345 39.58,22.68 C39.529658,21.8110392 39.7126476,20.9444277 40.11,20.17 C40.4204759,19.6223981 41.01103,19.2943124 41.64,19.32 C42.2665479,19.293478 42.8545621,19.6223018 43.16,20.17 C43.5573524,20.9444277 43.740342,21.8110392 43.69,22.68 C43.7426415,23.5523387 43.5595746,24.4227702 43.16,25.2 C42.855539,25.7498612 42.2681326,26.0822096 41.64,26.06 Z M41.64,25.3 C42.0192637,25.2941851 42.3510479,25.0433238 42.46,24.68 C42.671032,24.0354715 42.7592253,23.3570619 42.72,22.68 C42.7589879,22.0029466 42.6708004,21.324581 42.46,20.68 C42.3522908,20.3140913 42.0164321,20.0628477 41.635,20.0628477 C41.2535679,20.0628477 40.9177092,20.3140913 40.81,20.68 C40.6042976,21.325725 40.5162332,22.003144 40.55,22.68 C40.5160153,23.3568647 40.6040848,24.0343223 40.81,24.68 C40.9200476,25.0468237 41.2570275,25.2985436 41.64,25.3 Z M5.8,42.22 L5.8,36.68 L4.31,37.38 L4.31,36.61 L5.88,35.72 L6.74,35.72 L6.74,42.22 L5.8,42.22 Z M9.47,42.22 L11.58,36.5 L8.72,36.5 L8.72,35.72 L12.53,35.72 L12.53,36.42 L10.45,42.22 L9.47,42.22 Z M13.85,36.21 C14.1156955,36.0145495 14.4088773,35.8595339 14.72,35.75 C14.9957041,35.6501495 15.2867722,35.5993818 15.58,35.6 C16.0227861,35.5727952 16.4560071,35.7366183 16.77,36.05 C17.0733913,36.4011027 17.2276829,36.8568013 17.2,37.32 C17.1962866,37.6285619 17.1352499,37.9337454 17.02,38.22 C16.8433332,38.6203588 16.6219243,38.9994377 16.36,39.35 C16.04,39.81 15.5,40.5 14.73,41.44 L17.44,41.44 L17.44,42.22 L13.7,42.22 L13.7,41.52 C14.37,40.68 14.88,40.02 15.24,39.52 C15.5277267,39.1393199 15.7820066,38.7344795 16,38.31 C16.1466237,38.0216105 16.225299,37.7034887 16.23,37.38 C16.23,36.73 15.96,36.38 15.43,36.38 C14.8618681,36.4336201 14.3190892,36.6410516 13.86,36.98 L13.85,36.21 Z M19.07,42.31 C18.9105824,42.3192536 18.7545935,42.2612112 18.64,42.15 C18.5256399,42.0326928 18.4642205,41.8737248 18.47,41.71 C18.4643528,41.5492053 18.5257516,41.3932898 18.6395207,41.2795207 C18.7532898,41.1657516 18.9092053,41.1043528 19.07,41.11 C19.231129,41.1020848 19.3878442,41.164042 19.5,41.28 C19.6138207,41.3935727 19.6753868,41.5492988 19.67,41.71 C19.6757795,41.8737248 19.6143601,42.0326928 19.5,42.15 C19.3860948,42.2622962 19.229606,42.3205246 19.07,42.31 Z M22.57,42.22 L22.57,36.68 L21.08,37.38 L21.08,36.61 L22.65,35.72 L23.51,35.72 L23.51,42.22 L22.57,42.22 Z M27.91,36.34 C27.4836212,36.3192452 27.0802971,36.5343514 26.86,36.9 C26.5813818,37.451076 26.4439374,38.0627036 26.46,38.68 C26.8538525,38.4362627 27.3068541,38.3048576 27.77,38.3 C28.2308456,38.2834273 28.6748652,38.4742456 28.98,38.82 C29.3007146,39.2139822 29.4645387,39.7125774 29.44,40.22 C29.4671493,40.7835914 29.2815527,41.3368119 28.92,41.77 C28.5595871,42.1562348 28.0477,42.364646 27.52,42.34 C26.9106566,42.3805594 26.3277669,42.0852798 26,41.57 C25.6177198,40.8341149 25.44477,40.0074145 25.5,39.18 C25.4453876,38.2545124 25.6533768,37.3324269 26.1,36.52 C26.4500843,35.9296631 27.0940493,35.5770156 27.78,35.6 C28.0121975,35.6019406 28.2435183,35.6287604 28.47,35.68 C28.6782179,35.7332171 28.8795625,35.8103992 29.07,35.91 L29.07,36.59 C28.8849794,36.5152424 28.6943991,36.4550591 28.5,36.41 C28.3066852,36.3640242 28.1087061,36.3405351 27.91,36.34 Z M27.51,39 C27.1416997,39.006542 26.7795257,39.0953771 26.45,39.26 L26.45,39.34 C26.41877,39.9185202 26.5072831,40.4972599 26.71,41.04 C26.8531271,41.3749241 27.1858827,41.5888384 27.55,41.58 C28.18,41.58 28.49,41.14 28.49,40.26 C28.5150494,39.9305716 28.4268491,39.6024664 28.24,39.33 C28.0670111,39.1050364 27.7931641,38.9812426 27.51,39 Z M31,42.31 C30.8405824,42.3192536 30.6845935,42.2612112 30.57,42.15 C30.4556399,42.0326928 30.3942205,41.8737248 30.4,41.71 C30.4,41.3786292 30.6686292,41.11 31,41.11 C31.3313708,41.11 31.6,41.3786292 31.6,41.71 C31.6057795,41.8737248 31.5443601,42.0326928 31.43,42.15 C31.3154065,42.2612112 31.1594176,42.3192536 31,42.31 Z M32.87,36.21 C33.1356955,36.0145495 33.4288773,35.8595339 33.74,35.75 C34.0157041,35.6501495 34.3067722,35.5993818 34.6,35.6 C35.0427861,35.5727952 35.4760071,35.7366183 35.79,36.05 C36.0933913,36.4011027 36.2476829,36.8568013 36.22,37.32 C36.2162866,37.6285619 36.1552499,37.9337454 36.04,38.22 C35.8633332,38.6203588 35.6419243,38.9994377 35.38,39.35 C35.06,39.81 34.52,40.5 33.75,41.44 L36.46,41.44 L36.46,42.22 L32.72,42.22 L32.72,41.52 C33.39,40.68 33.9,40.02 34.26,39.52 C34.5408212,39.1385747 34.788396,38.7337565 35,38.31 C35.1466237,38.0216105 35.225299,37.7034887 35.23,37.38 C35.23,36.73 34.96,36.38 34.43,36.38 C33.8618681,36.4336201 33.3190892,36.6410516 32.86,36.98 L32.87,36.21 Z M38.09,42.31 C37.9305824,42.3192536 37.7745935,42.2612112 37.66,42.15 C37.5456399,42.0326928 37.4842205,41.8737248 37.49,41.71 C37.49,41.3786292 37.7586292,41.11 38.09,41.11 C38.4213708,41.11 38.69,41.3786292 38.69,41.71 C38.6957795,41.8737248 38.6343601,42.0326928 38.52,42.15 C38.4054065,42.2612112 38.2494176,42.3192536 38.09,42.31 Z M41.64,42.34 C41.0094538,42.3613953 40.4194919,42.0297828 40.11,41.48 C39.7178692,40.7144848 39.5350284,39.8589282 39.58,39 C39.528676,38.1309655 39.7117197,37.2640981 40.11,36.49 C40.4194919,35.9402172 41.0094538,35.6086047 41.64,35.63 C42.2681326,35.6077904 42.855539,35.9401388 43.16,36.49 C43.5582803,37.2640981 43.741324,38.1309655 43.69,39 C43.741324,39.8690345 43.5582803,40.7359019 43.16,41.51 C42.8475828,42.0482923 42.2617462,42.3681899 41.64,42.34 Z M41.64,41.58 C42.0203681,41.5774176 42.3538571,41.3252674 42.46,40.96 C42.671498,40.3155772 42.7597028,39.6370789 42.72,38.96 C42.7606688,38.2828873 42.6724405,37.6042085 42.46,36.96 C42.3522908,36.5940913 42.0164321,36.3428477 41.635,36.3428477 C41.2535679,36.3428477 40.9177092,36.5940913 40.81,36.96 C40.602573,37.6053403 40.5144675,38.283075 40.55,38.96 C40.5153568,39.6368906 40.6034416,40.3144656 40.81,40.96 C40.91718,41.3288201 41.2559266,41.5818597 41.64,41.58 Z M46.5,14.16 L1.5,14.16 C0.94771525,14.16 0.5,13.7122847 0.5,13.16 L0.5,1 C0.5,0.44771525 0.94771525,-1.77635684e-15 1.5,-1.77635684e-15 L46.5,-1.77635684e-15 C47.0522847,-1.77635684e-15 47.5,0.44771525 47.5,1 L47.5,13.16 C47.5,13.7122847 47.0522847,14.16 46.5,14.16 Z M2.5,12.16 L45.5,12.16 L45.5,2 L2.5,2 L2.5,12.16 Z M46.5,30.09 L1.5,30.09 C0.94771525,30.09 0.5,29.6422847 0.5,29.09 L0.5,16.91 C0.5,16.3577153 0.94771525,15.91 1.5,15.91 L46.5,15.91 C47.0522847,15.91 47.5,16.3577153 47.5,16.91 L47.5,29.09 C47.5,29.3552165 47.3946432,29.6095704 47.2071068,29.7971068 C47.0195704,29.9846432 46.7652165,30.09 46.5,30.09 Z M2.5,28.09 L45.5,28.09 L45.5,17.91 L2.5,17.91 L2.5,28.09 Z M46.5,46 L1.5,46 C0.94771525,46 0.5,45.5522847 0.5,45 L0.5,32.84 C0.5,32.2877153 0.94771525,31.84 1.5,31.84 L46.5,31.84 C47.0522847,31.84 47.5,32.2877153 47.5,32.84 L47.5,45 C47.5,45.5522847 47.0522847,46 46.5,46 Z M2.5,44 L45.5,44 L45.5,33.84 L2.5,33.84 L2.5,44 Z" id="Combined-Shape"></path>
            </g>
        </g>
    </g>
</svg>