<?xml version="1.0" encoding="UTF-8"?>
<svg width="51px" height="51px" viewBox="0 0 51 51" version="1.1" xmlns="http://www.w3.org/2000/svg" xmlns:xlink="http://www.w3.org/1999/xlink">
    <!-- Generator: Sketch 54 (76480) - https://sketchapp.com -->
    <title>AWS-Direct-Connect</title>
    <desc>Created with Sketch.</desc>
    <g id="AWS-Icons" stroke="none" stroke-width="1" fill="none" fill-rule="evenodd" opacity="0.800000012">
        <g id="Networking-&amp;-Content-Delivery/AWS-Direct-Connect" transform="translate(-12.000000, -12.000000)" fill="#3C5079" fill-rule="nonzero">
            <g id="AWS-Direct-Connect" transform="translate(12.000000, 12.000000)">
                <g id="Icon_Test">
                    <path d="M40.5,32.49 L33.5,32.49 L33.5,30.49 L40.5,30.49 C42.91,30.49 48.5,29.77 48.5,23.09 C48.5,19.09 46.15,16.58 41.5,15.64 C41.0556107,15.5501448 40.7272773,15.1725613 40.7,14.72 C40.47,10.82 38.2,9.43 36.33,9.43 C35.0434019,9.44254869 33.8369255,10.0568895 33.07,11.09 C32.8484875,11.3783077 32.4879475,11.5236725 32.1284071,11.4696376 C31.7688666,11.4156026 31.4669822,11.1706826 31.34,10.83 C30.6935795,8.94551252 29.6226794,7.2348094 28.21,5.83 C25.0793197,2.58173416 20.3020059,1.53559437 16.1003162,3.17821226 C11.8986265,4.82083016 9.09752621,8.82969195 9,13.34 C9.00114046,13.79115 9.02784996,14.2418728 9.08,14.69 C9.14588002,15.1939863 8.82322124,15.6672191 8.33,15.79 C6.16,16.32 2.5,18 2.5,23 C2.5,23.19 2.5,23.37 2.5,23.55 C2.86833589,27.5648526 6.30031806,30.597971 10.33,30.47 L15.5,30.47 L15.5,32.47 L10.35,32.47 C5.25757334,32.5991524 0.947280588,28.7361128 0.52,23.66 C0.52,23.44 0.52,23.22 0.52,23 C0.352819566,18.8845515 3.0344383,15.1931874 7,14.08 C7,13.84 7,13.59 7,13.34 C7.11698259,8.03612674 10.4048982,3.32026845 15.3410922,1.37636903 C20.2772863,-0.567530387 25.8979033,0.640100433 29.6,4.44 C30.8516796,5.67259253 31.8682835,7.12294741 32.6,8.72 C33.6569041,7.88592475 34.9636251,7.43156622 36.31,7.43 C39.11,7.43 42.06,9.43 42.61,13.85 C47.69,15.1 50.48,18.36 50.48,23.09 C50.5,30 45.33,32.49 40.5,32.49 Z M34.81,44.49 C36.4098361,44.6177447 37.6091659,46.0087889 37.5,47.61 L37.5,50.49 L35.5,50.49 L35.5,47.61 C35.5,46.97 35.13,46.49 34.81,46.49 L14.22,46.49 C13.9,46.49 13.53,46.97 13.53,47.61 L13.53,50.49 L11.53,50.49 L11.53,47.61 C11.4208341,46.0087889 12.6201639,44.6177447 14.22,44.49 L14.53,44.49 L14.53,39.26 C14.6056541,37.6722927 15.9413085,36.4390385 17.53,36.49 L31.5,36.49 C33.0886915,36.4390385 34.4243459,37.6722927 34.5,39.26 L34.5,44.49 L34.81,44.49 Z M16.5,39.26 L16.47,44.49 L32.47,44.49 L32.47,39.26 C32.47,38.84 32.03,38.49 31.47,38.49 L17.5,38.49 C16.97,38.49 16.5,38.84 16.5,39.26 Z M18.5,18.49 C20.5098387,18.4957389 22.2033294,19.9919627 22.4566732,21.9857785 C22.710017,23.9795943 21.444535,25.8517993 19.5,26.36 L19.5,35.49 L17.5,35.49 L17.5,26.36 C15.555465,25.8517993 14.289983,23.9795943 14.5433268,21.9857785 C14.7966706,19.9919627 16.4901613,18.4957389 18.5,18.49 Z M18.5,24.49 C19.6045695,24.49 20.5,23.5945695 20.5,22.49 C20.5,21.3854305 19.6045695,20.49 18.5,20.49 C17.3954305,20.49 16.5,21.3854305 16.5,22.49 C16.5,23.5945695 17.3954305,24.49 18.5,24.49 Z M24.44,11.49 C26.432787,11.5023818 28.1124966,12.9797513 28.3791713,14.9546533 C28.645846,16.9295553 27.418133,18.7995195 25.5,19.34 L25.5,35.49 L23.5,35.49 L23.5,19.37 C21.5466369,18.8807129 20.2615482,17.0156084 20.5000713,15.0160745 C20.7385944,13.0165406 22.4263538,11.5060652 24.44,11.49 Z M24.44,17.49 C25.5445695,17.49 26.44,16.5945695 26.44,15.49 C26.44,14.3854305 25.5445695,13.49 24.44,13.49 C23.3354305,13.49 22.44,14.3854305 22.44,15.49 C22.44,16.5945695 23.3354305,17.49 24.44,17.49 Z M30.5,18.49 C32.5098387,18.4957389 34.2033294,19.9919627 34.4566732,21.9857785 C34.710017,23.9795943 33.444535,25.8517993 31.5,26.36 L31.5,35.49 L29.5,35.49 L29.5,26.36 C27.555465,25.8517993 26.289983,23.9795943 26.5433268,21.9857785 C26.7966706,19.9919627 28.4901613,18.4957389 30.5,18.49 Z M30.5,24.49 C31.6045695,24.49 32.5,23.5945695 32.5,22.49 C32.5,21.3854305 31.6045695,20.49 30.5,20.49 C29.3954305,20.49 28.5,21.3854305 28.5,22.49 C28.5,23.5945695 29.3954305,24.49 30.5,24.49 Z" id="Combined-Shape"></path>
                </g>
            </g>
        </g>
    </g>
</svg>