<?xml version="1.0" encoding="UTF-8"?>
<svg width="44px" height="48px" viewBox="0 0 44 48" version="1.1" xmlns="http://www.w3.org/2000/svg" xmlns:xlink="http://www.w3.org/1999/xlink">
    <!-- Generator: Sketch 54 (76480) - https://sketchapp.com -->
    <title>Amazon-VPC_VPN-Connection_light-bg</title>
    <desc>Created with Sketch.</desc>
    <g id="AWS-Icons" stroke="none" stroke-width="1" fill="none" fill-rule="evenodd" opacity="0.800000012">
        <g id="Networking-&amp;-Content-Delivery/Amazon-VPC_VPN-Connection_light-bg" fill="#3C5079" fill-rule="nonzero">
            <g id="Amazon-VPC_VPN-Connection_light-bg">
                <path d="M4.2,13.65 L39.6639386,13.65 L36.58,10.68 L37.97,9.24 L42.76,13.85 C42.9500579,14.0384995 43.0609466,14.2924704 43.07,14.56 C43.074221,14.8292573 42.9696681,15.0888369 42.78,15.28 L38.06,20 L36.64,18.59 L39.58,15.65 L4.2,15.65 L7.2,18.65 L5.8,20 L1.06,15.32 C0.870687349,15.1322334 0.764201676,14.8766375 0.764201676,14.61 C0.764201676,14.3433625 0.870687349,14.0877666 1.06,13.9 L5.8,9.23 L7.2,10.65 L4.2,13.65 Z M32.7,22.06 L37.28,22.06 C37.8322847,22.06 38.28,22.5077153 38.28,23.06 L38.28,46.5 C38.28,47.0522847 37.8322847,47.5 37.28,47.5 L7.28,47.5 C6.72771525,47.5 6.28,47.0522847 6.28,46.5 L6.28,23.06 C6.28110462,22.7976601 6.38525584,22.5462606 6.57,22.36 C6.75707144,22.1691444 7.0127541,22.0611094 7.28,22.06 L11.98,22.06 L11.98,17.44 L13.98,17.44 L13.98,22.06 L30.7,22.06 L30.7,17.44 L32.7,17.44 L32.7,22.06 Z M21.29,34.6252802 C19.7700198,34.2426533 18.5618524,33.0141053 18.2473159,31.4190258 C17.8663044,29.486838 18.9025759,27.5544323 20.7228601,26.8027108 C22.5431443,26.0509894 24.6409648,26.6891113 25.7343337,28.3271175 C26.8277027,29.9651236 26.6124008,32.1472545 25.22,33.54 C24.6827175,34.0752679 24.014045,34.4483934 23.29,34.6279835 L23.29,40.19 L21.29,40.19 L21.29,34.6252802 Z M8.28,45.5 L36.28,45.5 L36.28,24.07 L8.28,24.07 L8.28,45.5 Z M22.29,28.47 C21.1103855,28.4754739 20.1554739,29.4303855 20.15,30.61 C20.15,31.7918894 21.1081106,32.75 22.29,32.75 C22.8583791,32.7526748 23.4042519,32.5280702 23.806161,32.126161 C24.2080702,31.7242519 24.4326748,31.1783791 24.43,30.61 C24.4339296,30.0419668 24.2064775,29.4968038 23.8,29.1 C23.4006105,28.6973482 22.8571332,28.4705994 22.29,28.47 Z M32.7,11.77 L30.7,11.77 L30.7,11.45 C30.7,6.53 26.99,2.52 22.39,2.5 C17.6366701,2.65239267 13.8933367,6.60542412 14,11.36 L14,11.77 L12,11.77 L12,11.35 C11.8989627,5.50635476 16.5179232,0.668929851 22.36,0.5 C25.1912126,0.583545824 27.8727736,1.79042332 29.8127435,3.85422112 C31.7527134,5.91801892 32.791573,8.66903567 32.7,11.5 L32.7,11.77 Z" id="Combined-Shape"></path>
            </g>
        </g>
    </g>
</svg>