<?xml version="1.0" encoding="UTF-8"?>
<svg width="48px" height="48px" viewBox="0 0 48 48" version="1.1" xmlns="http://www.w3.org/2000/svg" xmlns:xlink="http://www.w3.org/1999/xlink">
    <!-- Generator: Sketch 54 (76480) - https://sketchapp.com -->
    <title>Amazon-VPC_VPN-Gateway_light-bg</title>
    <desc>Created with Sketch.</desc>
    <g id="AWS-Icons" stroke="none" stroke-width="1" fill="none" fill-rule="evenodd" opacity="0.800000012">
        <g id="Networking-&amp;-Content-Delivery/Amazon-VPC_VPN-Gateway_light-bg" fill="#3C5079" fill-rule="nonzero">
            <g id="Amazon-VPC_VPN-Gateway_light-bg">
                <path d="M25,30.0050634 L25,33.31 L23,33.31 L23,30.0105496 C22.0665051,29.7216802 21.2868236,29.0320029 20.8978829,28.0989338 C20.3762143,26.8474504 20.6603524,25.4049185 21.6176541,24.4447507 C22.5749558,23.4845828 24.0166318,23.1961334 25.2696691,23.7140584 C26.5227064,24.2319833 27.339994,25.4541428 27.34,26.81 C27.3400067,28.3078078 26.3568811,29.5765627 25,30.0050634 Z M17.37,19.25 L17.37,15.53 C17.3366955,11.8334992 20.3035494,8.8084717 24,8.77 C25.7681929,8.76699979 27.4600848,9.49003052 28.68,10.77 C29.9105574,12.0638828 30.5916063,13.7844274 30.58,15.57 L30.6046429,19.25 L34.31,19.25 C34.8622847,19.25 35.31,19.6977153 35.31,20.25 L35.31,36.19 C35.31,36.7422847 34.8622847,37.19 34.31,37.19 L13.69,37.19 C13.1377153,37.19 12.69,36.7422847 12.69,36.19 L12.69,20.25 C12.69,19.6977153 13.1377153,19.25 13.69,19.25 L17.37,19.25 Z M19.37,19.25 L28.61,19.25 L28.61,15.59 C28.610702,14.3199149 28.1280364,13.097162 27.26,12.17 C26.4143951,11.2715915 25.2337569,10.7645689 24,10.77 C21.4104495,10.8138403 19.3421351,12.9402283 19.37,15.53 L19.37,19.25 Z M14.69,35.19 L33.31,35.19 L33.31,21.26 L14.69,21.26 L14.69,35.19 Z M24,47.5 C11.0213084,47.5 0.5,36.9786916 0.5,24 C0.5,11.0213084 11.0213084,0.5 24,0.5 C36.9786916,0.5 47.5,11.0213084 47.5,24 C47.4889723,36.974121 36.974121,47.4889723 24,47.5 Z M24,2.5 C12.1258779,2.5 2.5,12.1258779 2.5,24 C2.5,35.8741221 12.1258779,45.5 24,45.5 C35.8741221,45.5 45.5,35.8741221 45.5,24 C45.4889739,12.130448 35.869552,2.51102607 24,2.5 Z M24,25.47 C23.452177,25.4659569 22.956229,25.7933825 22.7447143,26.2987417 C22.5331995,26.8041008 22.6480627,27.3871775 23.0354426,27.7745574 C23.4228225,28.1619373 24.0058992,28.2768005 24.5112583,28.0652857 C25.0166175,27.853771 25.3440431,27.357823 25.34,26.81 C25.34,26.0699384 24.7400616,25.47 24,25.47 Z" id="Combined-Shape"></path>
            </g>
        </g>
    </g>
</svg>