<?xml version="1.0" encoding="UTF-8"?>
<svg width="75px" height="75px" viewBox="0 0 75 75" version="1.1" xmlns="http://www.w3.org/2000/svg" xmlns:xlink="http://www.w3.org/1999/xlink">
    <!-- Generator: Sketch 54 (76480) - https://sketchapp.com -->
    <title>Networking &amp; Content Delivery/Amazon-API-Gateway</title>
    <desc>Created with Sketch.</desc>
    <g id="Networking-&amp;-Content-Delivery/Amazon-API-Gateway" stroke="none" stroke-width="1" fill="none" fill-rule="evenodd" opacity="0.800000012">
        <g id="Amazon-API-Gateway" transform="translate(12.000000, 13.000000)" fill="#3C5079" fill-rule="nonzero">
            <g id="Icon_Test">
                <path d="M35.5,34.5 L35.5,14.5 L32.5,14.5 L32.5,12.5 L35.5,12.5 L35.5,1.5 C35.5014496,1.15251356 35.6831844,0.8306915 35.98,0.65 C36.2803874,0.455642855 36.6617235,0.436576051 36.98,0.6 L49.98,6.95 C50.3201654,7.11665881 50.5369645,7.46121449 50.54,7.84 L50.54,43.18 C50.562062,43.6308611 50.2793385,44.0406053 49.85,44.18 L36.85,48.5 C36.7372509,48.5162739 36.6227491,48.5162739 36.51,48.5 C36.2981735,48.5007544 36.0915792,48.434224 35.92,48.31 C35.6578044,48.1233242 35.5014883,47.8218574 35.5,47.5 L35.5,36.5 L32.5,36.5 L32.5,34.5 L35.5,34.5 Z M15.53,36.5 L15.53,47.5 C15.5285117,47.8218574 15.3721956,48.1233242 15.11,48.31 C14.9350868,48.4426117 14.7192803,48.5098301 14.5,48.5 C14.3938198,48.5144071 14.2861802,48.5144071 14.18,48.5 L1.18,44.18 C0.754629062,44.0370061 0.476608532,43.6281524 0.5,43.18 L0.5,7.84 C0.503035497,7.46121449 0.719834576,7.11665881 1.06,6.95 L14.06,0.6 C14.3782765,0.436576051 14.7596126,0.455642855 15.06,0.65 C15.3529855,0.833115454 15.5306914,1.15449853 15.53,1.5 L15.53,12.5 L17.5,12.5 L17.5,14.5 L15.53,14.5 L15.53,34.5 L17.5,34.5 L17.5,36.5 L15.53,36.5 Z M37.51,3.11 L37.51,46.11 L48.51,42.46 L48.51,8.46 L37.51,3.11 Z M2.5,42.5 L13.5,46.15 L13.5,3.15 L2.5,8.52 L2.5,42.5 Z M29.5,14.5 L26.5,14.5 L26.5,12.5 L29.5,12.5 L29.5,14.5 Z M23.5,14.5 L20.5,14.5 L20.5,12.5 L23.5,12.5 L23.5,14.5 Z M29.5,36.5 L26.5,36.5 L26.5,34.5 L29.5,34.5 L29.5,36.5 Z M23.5,36.5 L20.5,36.5 L20.5,34.5 L23.5,34.5 L23.5,36.5 Z M21.11,27.94 L17.35,24.73 C17.1278336,24.5400118 16.9999231,24.2623242 16.9999231,23.97 C16.9999231,23.6776758 17.1278336,23.3999882 17.35,23.21 L21.1,20 L22.4,21.52 L19.54,24 L22.4,26.45 L21.11,27.94 Z M29.9,27.94 L28.6,26.42 L31.46,24 L28.59,21.56 L29.89,20 L33.65,23.2 C33.8721664,23.3899882 34.0000769,23.6676758 34.0000769,23.96 C34.0000769,24.2523242 33.8721664,24.5300118 33.65,24.72 L29.9,27.94 Z M22.5588921,30.0485955 L26.5335959,18.2923278 L28.4282401,18.9328925 L24.4535364,30.6891602 L22.5588921,30.0485955 Z" id="Combined-Shape"></path>
            </g>
        </g>
    </g>
</svg>