<?xml version="1.0" encoding="UTF-8"?>
<svg width="24px" height="24px" viewBox="0 0 24 24" version="1.1" xmlns="http://www.w3.org/2000/svg" xmlns:xlink="http://www.w3.org/1999/xlink">
    <!-- Generator: Sketch 52.6 (67491) - http://www.bohemiancoding.com/sketch -->
    <title>Assets Exempted</title>
    <desc>Created with Sketch.</desc>
    <g id="Asset-Overview" stroke="none" stroke-width="1" fill="none" fill-rule="evenodd">
        <g transform="translate(-671.000000, -160.000000)" fill="#CCCCCC" fill-rule="nonzero" id="Group-22">
            <g transform="translate(470.000000, 146.000000)">
                <g id="Group-18-Copy">
                    <g id="Mask">
                        <g id="Shape">
                            <path d="M221.2331,14 C221.750802,14 222.166425,14.415623 222.166425,14.934365 L222.166425,19.1271278 C222.166425,19.6448298 221.750802,20.0614928 221.2331,20.0614928 L217.040337,20.0614928 C216.522635,20.0614928 216.104932,19.6458698 216.104932,19.1271278 L216.104932,14.934365 C216.105974,14.415623 216.523675,14 217.041377,14 L221.2331,14 Z M213.681167,14 C214.198869,14 214.614492,14.415623 214.614492,14.934365 L214.614492,19.1271278 C214.614492,19.6448298 214.198869,20.0614928 213.681167,20.0614928 L209.488405,20.0614928 C208.970702,20.0614928 208.553,19.6458698 208.553,19.1271278 L208.553,14.934365 C208.553,14.415623 208.970702,14 209.488405,14 L213.681167,14 Z M206.128168,14 C206.64587,14 207.061493,14.415623 207.061493,14.934365 L207.061493,19.1271278 C207.061493,19.6448298 206.64587,20.0614928 206.128168,20.0614928 L201.935405,20.0614928 C201.417703,20.0604509 201,19.6448298 201,19.1271278 L201,14.934365 C201,14.415623 201.417703,14 201.935405,14 L206.128168,14 Z M221.234167,21.5529995 C221.751869,21.5529995 222.167492,21.9686225 222.167492,22.4873646 L222.167492,26.6801273 C222.167492,27.1978294 221.751869,27.6144923 221.234167,27.6144923 L217.041404,27.6144923 C216.523702,27.6144923 216.105999,27.1988693 216.105999,26.6801273 L216.105999,22.4873646 C216.105999,21.9696625 216.523702,21.5529995 217.041404,21.5529995 L221.234167,21.5529995 Z M213.681167,21.5529995 C214.198869,21.5529995 214.614492,21.9686225 214.614492,22.4873646 L214.614492,26.6801273 C214.614492,27.1978294 214.198869,27.6144923 213.681167,27.6144923 L209.488405,27.6144923 C208.970702,27.6144923 208.553,27.1988693 208.553,26.6801273 L208.553,22.4873646 C208.553,21.9696625 208.970702,21.5529995 209.488405,21.5529995 L213.681167,21.5529995 Z M206.128168,21.5529995 C206.64587,21.5529995 207.061493,21.9686225 207.061493,22.4873646 L207.061493,26.6801273 C207.061493,27.1978294 206.64587,27.6144923 206.128168,27.6144923 L201.935405,27.6144923 C201.417703,27.6134505 201,27.1978294 201,26.6801273 L201,22.4873646 C201,21.9696625 201.417703,21.5529995 201.935405,21.5529995 L206.128168,21.5529995 Z M213.681167,29.1070657 C214.198869,29.1070657 214.614492,29.5226887 214.614492,30.0414307 L214.614492,34.2341935 C214.614492,34.7518955 214.198869,35.1685585 213.681167,35.1685585 L209.488405,35.1685585 C208.970702,35.1685585 208.553,34.7529355 208.553,34.2341935 L208.553,30.0414307 C208.553,29.5237287 208.970702,29.1070657 209.488405,29.1070657 L213.681167,29.1070657 Z M206.128168,29.1070657 C206.64587,29.1070657 207.061493,29.5226887 207.061493,30.0414307 L207.061493,34.2341935 C207.061493,34.7518955 206.64587,35.1685585 206.128168,35.1685585 L201.935405,35.1685585 C201.417703,35.1675169 201,34.7508555 201,34.2331535 L201,30.0403908 C201,29.5226887 201.417703,29.1060257 201.935405,29.1060257 L206.128168,29.1060257 L206.128168,29.1070657 Z M224.066675,31.9393072 C224.584377,31.9393072 225,32.3549302 225,32.8726322 L225,37.065395 C225,37.584137 224.584377,37.99976 224.066675,37.99976 L219.873912,37.99976 C219.35621,37.99976 218.938507,37.584137 218.938507,37.065395 L218.938507,32.8726322 C218.938507,32.3549302 219.35621,31.9382672 219.873912,31.9382672 L224.066675,31.9382672 L224.066675,31.9393072 Z M223.562519,32.669514 L220.379081,32.669514 C219.986365,32.669514 219.669701,32.9840979 219.669701,33.3778278 L219.669701,36.5612661 C219.669701,36.9539826 219.986365,37.2695798 220.379081,37.2695798 L223.562519,37.2695798 C223.955236,37.2695798 224.270833,36.954996 224.270833,36.5612661 L224.270833,33.3778278 C224.270833,32.9851112 223.956249,32.669514 223.562519,32.669514 Z" id="Assets-Exempted" transform="translate(213.000000, 25.999880) scale(-1, -1) translate(-213.000000, -25.999880) "></path>
                        </g>
                    </g>
                </g>
            </g>
        </g>
    </g>
</svg>