<?xml version="1.0" encoding="UTF-8"?>
<svg width="72px" height="72px" viewBox="0 0 72 72" version="1.1" xmlns="http://www.w3.org/2000/svg" xmlns:xlink="http://www.w3.org/1999/xlink">
    <!-- Generator: Sketch 52.6 (67491) - http://www.bohemiancoding.com/sketch -->
    <title>np_fix_223720_000000</title>
    <desc>Created with Sketch.</desc>
    <defs>
        <filter x="-22.5%" y="-22.5%" width="145.0%" height="145.0%" filterUnits="objectBoundingBox" id="filter-1">
            <feOffset dx="0" dy="1" in="SourceAlpha" result="shadowOffsetOuter1"></feOffset>
            <feGaussianBlur stdDeviation="3" in="shadowOffsetOuter1" result="shadowBlurOuter1"></feGaussianBlur>
            <feColorMatrix values="0 0 0 0 0   0 0 0 0 0   0 0 0 0 0  0 0 0 0.272616621 0" type="matrix" in="shadowBlurOuter1" result="shadowMatrixOuter1"></feColorMatrix>
            <feMerge>
                <feMergeNode in="shadowMatrixOuter1"></feMergeNode>
                <feMergeNode in="SourceGraphic"></feMergeNode>
            </feMerge>
        </filter>
    </defs>
    <g id="Reactors" stroke="none" stroke-width="1" fill="none" fill-rule="evenodd">
        <g id="Reactors-v1" transform="translate(-386.000000, -543.000000)" fill-rule="nonzero">
            <g id="Group-29" transform="translate(242.000000, 471.000000)">
                <g id="np_fix_223720_000000" filter="url(#filter-1)" transform="translate(150.000000, 77.000000)">
                    <path d="M25.1273108,57.3829815 L25.1937628,53.6539179 C21.8557192,52.9996044 18.7809711,51.6244991 16.1635879,49.7280368 L13.4798573,52.3452908 C12.4983877,53.3267611 10.8626049,53.3267611 9.8811353,52.2788388 L7.13354377,49.4647672 C6.15207414,48.4832969 6.15207414,46.8475131 7.19999581,45.8660428 L9.88372638,43.2487888 C8.11760449,40.5011954 6.80897831,37.4264453 6.28500439,34.0883995 L2.48691319,34.1548516 C1.1118088,34.1548516 0,32.9765638 0,31.6040758 L0.0664520374,27.6781947 C0.0664520374,26.3030894 1.24473905,25.1912798 2.61722619,25.1912798 L6.14946997,25.2577319 C8.63638317,26.8270375 11.5807921,27.5478292 14.5888002,27.3510117 C15.3734525,27.2845596 16.0942438,27.5478161 16.5517395,28.0718035 L17.0092483,28.5293126 C16.9427962,28.9868217 16.9427962,29.4443046 16.9427962,29.9044179 C16.8763442,37.1018666 22.6347967,43.0574282 29.8321098,43.1208966 C30.4199709,43.1208966 31.0103968,43.1208966 31.5343707,43.0544446 L31.664723,43.1847969 C32.1886838,43.7087581 32.4493753,44.4934239 32.3855143,45.344555 C32.0583577,48.419305 32.7126708,51.3637159 34.2181144,53.9808391 L34.0903205,57.5130852 C34.0903205,58.8881905 32.9120335,60 31.5395464,60 L27.6136678,59.9335479 C26.2385634,59.9335479 25.0603418,58.8217384 25.1267546,57.3827721 L25.1273108,57.3829815 Z M52.8027916,10.5328249 L50.0552,7.71875337 C49.0737304,6.73728309 47.5044259,6.67080484 46.456478,7.65230129 L43.7088865,10.3360336 C41.0916341,8.50343231 38.0168861,7.13094427 34.7454515,6.47663076 L34.8119035,2.6172279 C34.8119035,1.24212261 33.7000947,0.0664520809 32.3249903,0.0664520809 L28.3991118,0 C27.0240074,0 25.8483376,1.11180953 25.8483376,2.48691482 L25.7818856,6.15211742 C27.2873292,8.70289324 27.9416423,11.7137823 27.6144857,14.7884016 C27.5480337,15.6395326 27.81129,16.3577071 28.335277,16.9481596 L28.4656293,17.078512 C29.0534903,17.0120599 29.5774381,17.0120599 30.1678902,17.0120599 C37.3653342,17.078512 43.1239437,23.0312208 43.0572038,30.2285386 C43.0572038,30.6860477 42.9907517,31.1435306 42.9907517,31.6036439 L43.4482605,32.061153 C43.9722214,32.5851142 44.6904085,32.8458058 45.4111998,32.7819448 C48.4220869,32.5851404 51.3664958,33.305906 53.85053,34.8752246 L57.3827738,34.9416767 C58.7578782,34.9416767 59.933548,33.8298671 59.933548,32.4547619 L60,28.5288807 C60,27.1537755 58.8881912,25.9781049 57.5130868,25.9781049 L53.7175474,25.9116528 C53.1296864,22.573607 51.8849473,19.4988569 50.0523472,16.8180036 L52.7999388,14.1342712 C53.7839602,13.1502491 53.7839602,11.5144653 52.8024952,10.5329951 L52.8027916,10.5328249 Z" id="Shape" fill="#289CF7"></path>
                    <path d="M47.1107911,45.2114414 C48.4194173,43.9028144 50.5126957,43.9028144 51.757461,45.2114414 L54.5715307,48.025513 C55.4226612,48.876644 56.9281047,48.2862177 56.9281047,47.0440427 C56.9945568,44.2299711 55.9466351,41.4158996 53.8533567,39.3224889 C51.6297391,37.0988698 48.6188519,36.0509213 45.674443,36.2477388 C43.9083211,36.3780911 42.2060602,35.7902297 41.0277732,34.5454768 L32.8462423,26.3665578 L25.8457466,19.4321431 C24.5371204,18.1235161 23.9492855,16.2909148 24.1434856,14.4583135 C24.4706422,11.3835634 23.4891725,8.17585679 21.1325985,5.82202934 C18.7785763,3.40159277 15.5734891,2.4201225 12.4989373,2.74727926 C11.3206503,2.87763159 10.8631546,4.3165848 11.714285,5.10385482 L14.8555113,8.24508316 C16.1641375,9.5537102 16.0976593,11.583129 14.8555113,12.891756 L12.892572,14.8546966 C11.5839459,16.1633236 9.49066742,16.1633236 8.2459022,14.8546966 L5.43183246,12.040625 C4.580702,11.189494 3.07525844,11.7799203 3.07525844,13.0220953 C3.0088064,15.8361669 4.05672807,18.6502385 6.15000651,20.7436491 C8.37362412,22.9672682 11.3845112,24.0152167 14.3289201,23.8183992 C16.095042,23.6880469 17.797303,24.2759083 18.97559,25.5206613 L34.0247911,40.5698722 C35.3334172,41.8784992 35.9212521,43.7111005 35.727052,45.5437018 C35.3998954,48.6184519 36.3813651,51.8261585 38.7379391,54.1799859 C41.0945131,56.5365615 44.2996004,57.5180318 47.3742176,57.190875 C48.5525046,57.0605227 49.0100003,55.6215695 48.1588698,54.8342995 L45.0176436,51.6930711 C43.7090174,50.3844441 43.7754956,48.3550253 45.0176436,47.0463982 L47.1107911,45.2114414 Z" id="Path" fill="#096BB8"></path>
                </g>
            </g>
        </g>
    </g>
</svg>