<?xml version="1.0" encoding="UTF-8"?>
<svg width="45px" height="45px" viewBox="0 0 45 45" version="1.1" xmlns="http://www.w3.org/2000/svg" xmlns:xlink="http://www.w3.org/1999/xlink">
    <!-- Generator: Sketch 51.3 (57544) - http://www.bohemiancoding.com/sketch -->
    <title>Gold Medal</title>
    <desc>Created with Sketch.</desc>
    <defs></defs>
    <g id="Patching" stroke="none" stroke-width="1" fill="none" fill-rule="evenodd">
        <g id="Patching---Gold-Medal" transform="translate(-218.000000, -233.000000)">
            <g id="Group-32" transform="translate(219.000000, 234.000000)">
                <g id="Gold-Medal">
                    <circle id="Oval-2" fill="#EEB500" cx="22" cy="22" r="17"></circle>
                    <path d="M40.8146394,18.4497447 L41.933234,14.8920436 L38.8829787,12.6548543 L38.8829787,8.89340638 L35.3252777,7.72476702 L34.1566383,4.16706596 L30.3951904,4.16706596 L28.1580011,1.11681064 L24.5502553,2.18536064 L21.5,0 L18.4497447,2.18536064 L14.8402149,1.06676596 L12.6030255,4.11702128 L8.84157766,4.11702128 L7.6729383,7.67472234 L4.11523723,8.8433617 L4.11523723,12.6048096 L1.06498191,14.8419989 L2.18536064,18.4497447 L0,21.5 L2.18536064,24.5502553 L1.06676596,28.1079564 L4.11702128,30.3451457 L4.11702128,34.1065936 L7.67472234,35.275233 L8.8433617,38.832934 L12.6048096,38.832934 L14.8419989,41.8831894 L18.4497447,40.8146394 L21.5,43 L24.5502553,40.8146394 L28.1597851,41.933234 L30.3969745,38.8829787 L34.1584223,38.8829787 L35.3270617,35.3252777 L38.8847628,34.1566383 L38.8847628,30.3951904 L41.9350181,28.1580011 L40.8146394,24.5502553 L43,21.5 L40.8146394,18.4497447 Z M21.4998628,36.9013191 C13.0119372,36.9013191 6.09854362,29.9897553 6.09854362,21.5 C6.09854362,13.0120745 13.0119372,6.09868085 21.4998628,6.09868085 C29.9877883,6.09868085 36.9011819,13.0120745 36.9011819,21.5 C36.9011819,29.9879255 29.9877883,36.9013191 21.4998628,36.9013191 Z" id="Shape" stroke="#EEB500" fill="#FEFEFE" fill-rule="nonzero"></path>
                    <path d="M27.0913723,20.3815426 L27.0913586,20.8389894 L27.3969331,20.8389894 C28.1599544,20.8389894 28.7692735,20.2296702 28.7692735,19.4666489 L28.7692735,17.8405628 L27.0913586,17.8405628 L27.0913723,20.3815426 Z" id="Shape" fill="#FEFEFE" fill-rule="nonzero"></path>
                    <path d="M21.5,7.87860638 C13.9772872,7.87860638 7.87860638,13.9772872 7.87860638,21.5 C7.87860638,29.0227128 13.9772872,35.1213936 21.5,35.1213936 C29.0227128,35.1213936 35.1213936,29.0227128 35.1213936,21.5 C35.1213936,13.9772872 29.0227128,7.87860638 21.5,7.87860638 Z M30.4453723,19.4666489 C30.4453723,21.1945628 29.0730319,22.5669032 27.3451181,22.5669032 L26.6339255,22.5669032 C25.8709043,24.3466457 24.2448181,25.6671574 22.3132032,25.9727319 L22.3132032,27.7006457 C23.837416,27.9543869 25.1597574,28.7674117 26.0228223,29.9878798 L16.9255777,29.9878798 C17.7904266,28.7674117 19.1109383,27.9043468 20.6351968,27.7006457 L20.6351968,25.9727319 C18.6535372,25.6671712 17.025667,24.3466457 16.3144745,22.5669032 L15.6032819,22.5669032 C13.8753681,22.5669032 12.5030277,21.1945628 12.5030277,19.4666489 L12.5030277,16.1626479 L15.9088564,16.1626479 L15.9088564,13.8754138 L27.0911436,13.8754138 L27.0911436,16.1626479 L30.4451436,16.1626479 L30.4453723,19.4666489 Z" id="Shape" fill="#FEFEFE" fill-rule="nonzero"></path>
                    <path d="M15.9086277,17.8404255 L14.2825415,17.8404255 L14.2825415,19.4665117 C14.2825415,20.229533 14.8918606,20.8388521 15.6548819,20.8388521 L15.9086277,20.8388521 L15.9086231,20.3814053 L15.9086277,17.8404255 Z" id="Shape" fill="#FEFEFE" fill-rule="nonzero"></path>
                </g>
            </g>
        </g>
    </g>
</svg>