<?xml version="1.0" encoding="UTF-8"?>
<svg width="20px" height="20px" viewBox="0 0 20 20" version="1.1" xmlns="http://www.w3.org/2000/svg" xmlns:xlink="http://www.w3.org/1999/xlink">
    <!-- Generator: Sketch 54 (76480) - https://sketchapp.com -->
    <title>Not Applicable</title>
    <desc>Created with Sketch.</desc>
    <g id="CIS/TIS-Scores" stroke="none" stroke-width="1" fill="none" fill-rule="evenodd">
        <g id="CIS-Score" transform="translate(-1132.000000, -485.000000)" fill="#81878F">
            <path d="M1142,505 C1136.47715,505 1132,500.522847 1132,495 C1132,489.477153 1136.47715,485 1142,485 C1147.52285,485 1152,489.477153 1152,495 C1152,500.522847 1147.52285,505 1142,505 Z M1140.16309,497.017578 L1140.16309,492.020508 L1139.41455,492.020508 L1139.41455,494.638672 C1139.41455,494.823243 1139.42139,495.080158 1139.43506,495.409424 C1139.44873,495.73869 1139.45785,495.929524 1139.4624,495.981934 L1139.44189,495.981934 L1136.99121,492.020508 L1136,492.020508 L1136,497.017578 L1136.7417,497.017578 L1136.7417,494.419922 C1136.7417,494.069009 1136.72575,493.681643 1136.69385,493.257812 L1136.67676,493.035645 L1136.7041,493.035645 L1139.16162,497.017578 L1140.16309,497.017578 Z M1143.49561,492.020508 L1142.74023,492.020508 L1140.87744,497.017578 L1141.63623,497.017578 L1143.49561,492.020508 Z M1147.31348,497.017578 L1148.18164,497.017578 L1146.31201,492 L1145.42334,492 L1143.55371,497.017578 L1144.41504,497.017578 L1144.90381,495.629883 L1146.81445,495.629883 L1147.31348,497.017578 Z M1146.59912,494.925781 L1145.14307,494.925781 L1145.59424,493.623535 C1145.71273,493.290851 1145.80273,492.984376 1145.86426,492.704102 C1145.88704,492.795248 1145.92863,492.938801 1145.98901,493.134766 C1146.0494,493.33073 1146.09668,493.474283 1146.13086,493.56543 L1146.59912,494.925781 Z" id="Not-Applicable"></path>
        </g>
    </g>
</svg>