<?xml version="1.0" encoding="UTF-8"?>
<svg width="36px" height="36px" viewBox="0 0 36 36" version="1.1" xmlns="http://www.w3.org/2000/svg" xmlns:xlink="http://www.w3.org/1999/xlink">
    <!-- Generator: Sketch 55.1 (78136) - https://sketchapp.com -->
    <title>np_false_1042916_000000</title>
    <desc>Created with Sketch.</desc>
    <g id="Current" stroke="none" stroke-width="1" fill="none" fill-rule="evenodd">
        <g id="np_false_1042916_000000" fill="#F2425F" fill-rule="nonzero">
            <path d="M18,0.1875 C8.175375,0.1875 0.1875,8.175375 0.1875,18 C0.1875,27.824625 8.175375,35.8125 18,35.8125 C27.824625,35.8125 35.8125,27.824625 35.8125,18 C35.8125,8.175375 27.824625,0.1875 18,0.1875 Z M18,33.637125 C9.375,33.637125 2.362875,26.625 2.362875,18 C2.362875,9.375 9.375,2.362875 18,2.362875 C26.625,2.362875 33.637125,9.375 33.637125,18 C33.637125,26.625 26.625,33.637125 18,33.637125 Z" id="Shape"></path>
            <path d="M26.4375,9.5625 C25.9131,9.0381 25.0503,9.0381 24.5244,9.5625 L18.00015,16.08675 L11.4759,9.5625 C10.9515,9.0381 10.0887,9.0381 9.5628,9.5625 C9.0384,10.0869 9.0384,10.9497 9.5628,11.4756 L16.08705,17.99985 L9.5628,24.5241 C9.0384,25.0485 9.0384,25.9113 9.5628,26.4372 C9.8250075,26.6994075 10.1634,26.8503 10.5384,26.8503 C10.875315,26.8503 11.2137,26.700885 11.514,26.4372 L18.03825,19.91295 L24.5625,26.4372 C24.8247075,26.6994075 25.1631,26.8503 25.5381,26.8503 C25.875015,26.8503 26.2134,26.700885 26.5137,26.4372 C27.0381,25.9128 27.0381,25.05 26.5137,24.5241 L19.98945,17.99985 L26.5137,11.4756 C26.9619375,10.9497375 26.9619375,10.0869375 26.43753,9.5625 L26.4375,9.5625 Z" id="Path"></path>
        </g>
    </g>
</svg>