<?xml version="1.0" standalone="no"?>
<!DOCTYPE svg PUBLIC "-//W3C//DTD SVG 20010904//EN"
 "http://www.w3.org/TR/2001/REC-SVG-20010904/DTD/svg10.dtd">
<svg version="1.0" xmlns="http://www.w3.org/2000/svg"
 width="192.000000pt" height="192.000000pt" viewBox="0 0 192.000000 192.000000"
 preserveAspectRatio="xMidYMid meet">
<metadata>
Created by potrace 1.15, written by Peter Selinger 2001-2017
</metadata>
<g transform="translate(0.000000,192.000000) scale(0.100000,-0.100000)"
fill="#ed0274" stroke="none">
<path d="M785 1581 c-166 -48 -315 -168 -393 -317 -52 -101 -72 -183 -72 -301
0 -123 13 -180 67 -292 63 -131 153 -221 284 -284 52 -25 118 -50 147 -56 78
-16 234 -14 305 5 145 37 283 135 365 258 44 66 92 168 92 196 0 6 -38 10 -87
10 l-88 -1 -24 -50 c-29 -62 -119 -161 -178 -196 -143 -83 -334 -85 -478 -3
-60 35 -143 118 -178 180 -74 132 -76 314 -5 455 27 52 122 151 176 182 168
99 394 81 542 -43 l32 -27 -129 -129 -128 -128 283 0 282 0 0 282 0 283 -92
-92 -93 -92 -50 41 c-63 51 -164 102 -242 122 -83 22 -259 20 -338 -3z"/>
</g>
</svg>
