<?xml version="1.0" encoding="UTF-8"?>
<svg width="24px" height="24px" viewBox="0 0 24 24" version="1.1" xmlns="http://www.w3.org/2000/svg" xmlns:xlink="http://www.w3.org/1999/xlink">
    <!-- Generator: Sketch 52.6 (67491) - http://www.bohemiancoding.com/sketch -->
    <title>Tags</title>
    <desc>Created with Sketch.</desc>
    <g id="Asset-Overview" stroke="none" stroke-width="1" fill="none" fill-rule="evenodd">
        <g transform="translate(-929.000000, -160.000000)" fill="#CCCCCC" id="Group-18">
            <g transform="translate(728.000000, 146.000000)">
                <g id="Mask">
                    <path d="M224.303211,26.0534747 L212.690068,14.6822722 C212.302468,14.2274241 211.684092,14 211.064228,14 L203.322629,14 C202.005977,14 201,14.985019 201,16.2742405 L201,23.854557 C201,24.4615063 201.232263,25.0670001 201.696789,25.4465253 L213.309932,36.8177278 C213.774457,37.2725759 214.39432,37.5 214.935772,37.5 C215.477223,37.5 216.097086,37.2725759 216.561612,36.8177278 L224.303211,29.2374114 C225.232263,28.403038 225.232263,26.887848 224.303211,26.0534747 Z M204.957447,19 C204.325367,19 203.808511,18.4939119 203.808511,17.875 C203.808511,17.2560881 204.325367,16.75 204.957447,16.75 C205.589527,16.75 206.106383,17.2560881 206.106383,17.875 C206.106383,18.4939119 205.589527,19 204.957447,19 Z" id="Tags"></path>
                </g>
            </g>
        </g>
    </g>
</svg>