<?xml version="1.0" encoding="UTF-8"?>
<svg width="24px" height="24px" viewBox="0 0 24 24" version="1.1" xmlns="http://www.w3.org/2000/svg" xmlns:xlink="http://www.w3.org/1999/xlink">
    <!-- Generator: Sketch 52.6 (67491) - http://www.bohemiancoding.com/sketch -->
    <title>Verified Apps</title>
    <desc>Created with Sketch.</desc>
    <g id="Asset-Overview" stroke="none" stroke-width="1" fill="none" fill-rule="evenodd">
        <g transform="translate(-1188.000000, -160.000000)" fill="#CCCCCC" fill-rule="nonzero" id="Group-5">
            <g transform="translate(987.000000, 146.000000)">
                <path d="M212.649349,37.0859787 L210.944813,37.8501107 C210.203195,38.1820123 209.330285,37.9485579 208.854947,37.2894448 L207.759849,35.776182 C207.617337,35.5783516 207.396073,35.450833 207.153243,35.4255348 L205.29495,35.2342665 C204.48675,35.1517592 203.848269,34.5123302 203.764813,33.7050663 L203.573545,31.8467728 C203.549169,31.6039432 203.421657,31.3826674 203.223834,31.2392307 L201.709635,30.1450692 C201.051448,29.6687708 200.818004,28.7968211 201.149905,28.0552031 L201.913101,26.3506672 C202.013423,26.1275217 202.013423,25.8724966 201.913101,25.6493487 L201.149905,23.9448129 C200.818004,23.2031949 201.051458,22.3302851 201.709635,21.8549468 L203.223834,20.7598492 C203.421664,20.6173365 203.549183,20.3960728 203.573545,20.1532432 L203.764813,18.2949497 C203.848259,17.4867497 204.48675,16.8482688 205.29495,16.7648134 L207.153243,16.5735451 C207.396073,16.5491686 207.617349,16.4216572 207.759849,16.223834 L208.854947,14.7096351 C209.330309,14.0514485 210.203195,13.8180037 210.944813,14.1499052 L212.649349,14.9131012 C212.872494,15.013423 213.127519,15.013423 213.350667,14.9131012 L215.055203,14.1499052 C215.796821,13.8180037 216.668795,14.0514581 217.145069,14.7096351 L218.239231,16.223834 C218.382682,16.4216644 218.603943,16.549183 218.846773,16.5735451 L220.705066,16.7648134 C221.51233,16.8482592 222.151747,17.4867497 222.234267,18.2949497 L222.425535,20.1532432 C222.45085,20.3960728 222.578361,20.6173485 222.776182,20.7598492 L224.289445,21.8549468 C224.948568,22.3303091 225.182036,23.2031949 224.850111,23.9448129 L224.085979,25.6493487 C223.986595,25.8724942 223.986595,26.1275193 224.085979,26.3506672 L224.850111,28.0552031 C225.182012,28.7968211 224.948558,29.6687948 224.289445,30.1450692 L222.776182,31.2392307 C222.578352,31.3826818 222.450833,31.6039432 222.425535,31.8467728 L222.234267,33.7050663 C222.151759,34.5123302 221.51233,35.1517472 220.705066,35.2342665 L218.846773,35.4255348 C218.603943,35.4508498 218.382667,35.5783612 218.239231,35.776182 L217.145069,37.2894448 C216.668771,37.9485675 215.796821,38.1820363 215.055203,37.8501107 L213.350667,37.0859787 C213.127522,36.9865954 212.872497,36.9865954 212.649349,37.0859787 Z M208.368327,24.3780467 L206.913198,25.8331763 L211.797153,30.7171314 L219.293981,23.2203036 L217.838851,21.765174 L211.797033,27.8069921 L208.368327,24.3780467 Z" id="Verified-Apps"></path>
            </g>
        </g>
    </g>
</svg>